<?xml version="1.0" encoding="utf-8" ?>
<svg xmlns="http://www.w3.org/2000/svg" xmlns:xlink="http://www.w3.org/1999/xlink" width="1024" height="1024">
	<path fill="#004BB7" d="M120.061 239.396C120.954 220.439 120.231 201.138 120.217 182.148C120.209 171.277 119.246 159.436 121.97 148.854Q122.346 147.392 122.82 145.958Q123.294 144.525 123.863 143.127Q124.433 141.728 125.097 140.372Q125.76 139.016 126.514 137.708Q127.268 136.4 128.109 135.146Q128.949 133.891 129.873 132.697Q130.797 131.503 131.8 130.374Q132.802 129.245 133.879 128.187C139.295 122.809 145.853 118.694 153.195 116.541C167.469 112.356 189.142 113.839 204.121 113.976L237.728 114.02C236.978 114.429 236.411 114.688 235.87 115.365C233.833 117.91 227.405 121.253 224.551 123.474C211.323 133.768 199.076 149.878 194.565 166.188C198.789 169.646 202.11 173.453 202.783 179.11C203.366 184.013 201.647 188.753 198.52 192.501C196.649 194.743 194.404 196.189 191.955 197.699C192.265 211.679 192.146 225.381 191.509 239.35C185.491 240.112 178.975 239.675 172.911 239.629C155.442 239.494 137.473 238.176 120.061 239.396Z"/>
	<path fill="#F13324" d="M191.955 197.699C187.519 198.785 183.443 199.369 178.976 198.017Q178.175 197.779 177.402 197.462Q176.629 197.146 175.891 196.754Q175.153 196.362 174.458 195.898Q173.763 195.434 173.118 194.904Q172.472 194.374 171.883 193.781Q171.294 193.189 170.766 192.542Q170.239 191.894 169.778 191.197Q169.318 190.499 168.929 189.76Q168.515 188.981 168.182 188.165Q167.848 187.348 167.597 186.503Q167.347 185.657 167.182 184.79Q167.018 183.924 166.941 183.045Q166.863 182.167 166.874 181.285Q166.885 180.403 166.985 179.527Q167.084 178.65 167.27 177.788Q167.456 176.926 167.728 176.087Q167.866 175.657 168.026 175.234Q168.187 174.811 168.369 174.398Q168.552 173.984 168.756 173.58Q168.959 173.177 169.184 172.785Q169.409 172.392 169.654 172.013Q169.899 171.633 170.164 171.266Q170.429 170.9 170.712 170.548Q170.996 170.196 171.297 169.859Q171.599 169.522 171.918 169.202Q172.237 168.881 172.572 168.578Q172.908 168.275 173.259 167.99Q173.609 167.705 173.975 167.438Q174.34 167.172 174.719 166.925Q175.098 166.679 175.489 166.452Q175.88 166.226 176.283 166.02Q176.685 165.814 177.098 165.63C183.18 162.855 188.576 164.052 194.565 166.188C198.789 169.646 202.11 173.453 202.783 179.11C203.366 184.013 201.647 188.753 198.52 192.501C196.649 194.743 194.404 196.189 191.955 197.699Z"/>
	<path fill="#F95630" d="M848.152 149.441C847.417 144.401 845.474 135.414 848.571 130.952C850.274 128.498 853.904 128.118 856.675 127.767C863.709 126.875 883.746 125.547 889.262 129.727C891.128 131.142 891.999 133.088 892.206 135.39C892.655 140.392 889.571 147.897 894.277 151.58C895.964 152.9 898.473 153.258 900.522 153.756C905.881 148.478 911.265 144.19 918.642 142.157C927.277 145.492 939.271 157.469 943.182 165.848C944.588 168.861 944.869 171.605 943.669 174.742C941.883 179.414 937.712 183.271 934.076 186.574C935.253 189.343 936.463 192.082 937.334 194.966C942.834 194.407 951.827 192.822 956.409 196.745C960.151 199.95 960.212 209.126 960.345 213.705C960.536 220.267 961.111 237.353 956.532 241.672C952.319 245.646 943.272 244.528 937.812 244.409L933.459 253.133C937.789 256.796 946.839 263.968 947.467 269.941C947.916 274.219 944.818 278.352 942.16 281.414C937.314 286.997 931.586 291.918 924.131 293.2C918.229 284.327 912.261 275.649 905.697 267.249C901.875 262.7 897.829 258.328 893.859 253.908C874.995 235.229 854.085 223.619 830.129 212.796C824.689 210.147 818.533 208.641 812.739 206.953C807.776 205.296 802.794 203.64 797.671 202.552C798.849 197.674 800.492 192.903 802.018 188.125C799.158 184.67 793.779 179.43 793.051 174.962C792.799 173.413 793.315 172.682 794.084 171.423C795.257 169.243 796.729 167.192 798.207 165.21C803.694 157.851 811.495 148.587 820.387 145.275C822.598 144.452 825.127 144.191 827.455 143.84C831.201 146.84 834.22 150.478 837.826 153.584C841.165 151.968 844.681 150.738 848.152 149.441Z"/>
	<path fill="#F13324" d="M794.084 171.423C795.257 169.243 796.729 167.192 798.207 165.21C803.694 157.851 811.495 148.587 820.387 145.275C822.598 144.452 825.127 144.191 827.455 143.84C831.201 146.84 834.22 150.478 837.826 153.584C826.912 160.61 818.211 169.148 810.502 179.564C806.908 176.766 802.963 173.37 798.45 172.183C797.032 171.81 795.45 171.864 794.084 171.423Z"/>
	<path fill="#F13324" d="M812.739 206.953C817.176 190.668 825.09 177.088 840.065 168.428C853.363 160.739 869.949 157.447 884.961 161.6C900.114 165.791 913.557 177.89 921.106 191.469Q921.778 192.693 922.388 193.949Q922.999 195.204 923.547 196.488Q924.096 197.773 924.58 199.082Q925.065 200.392 925.484 201.723Q925.904 203.055 926.257 204.406Q926.611 205.757 926.898 207.123Q927.185 208.49 927.404 209.869Q927.623 211.248 927.774 212.636Q927.926 214.024 928.008 215.418Q928.091 216.812 928.105 218.208Q928.12 219.604 928.065 220.999Q928.011 222.394 927.888 223.785Q927.765 225.176 927.574 226.559Q927.382 227.942 927.123 229.315Q926.865 230.687 926.538 232.044Q926.212 233.402 925.82 234.742C922.253 246.963 914.488 258.193 905.697 267.249C901.875 262.7 897.829 258.328 893.859 253.908C900.453 246.643 907.075 238.954 909.801 229.316C912.741 218.917 911.034 208.029 905.769 198.675C900.29 188.943 891.751 181.287 880.872 178.286C870.801 175.508 859.281 177.349 850.264 182.493C838.192 189.38 833.683 200.001 830.129 212.796C824.689 210.147 818.533 208.641 812.739 206.953Z"/>
	<path fill="#FEFEFE" d="M830.129 212.796C833.683 200.001 838.192 189.38 850.264 182.493C859.281 177.349 870.801 175.508 880.872 178.286C891.751 181.287 900.29 188.943 905.769 198.675C911.034 208.029 912.741 218.917 909.801 229.316C907.075 238.954 900.453 246.643 893.859 253.908C874.995 235.229 854.085 223.619 830.129 212.796Z"/>
	<path fill="#004BB7" d="M119.959 476.385L120.023 476.994C121.159 488.689 120.543 500.98 120.372 512.748Q119.897 536.738 119.991 560.731L119.54 754.397L119.285 795.663C119.09 809.199 117.921 823.633 120.48 836.993Q120.672 837.977 120.906 838.952Q121.14 839.926 121.415 840.89Q121.689 841.854 122.005 842.805Q122.321 843.757 122.676 844.694Q123.032 845.631 123.427 846.552Q123.823 847.473 124.256 848.377Q124.69 849.28 125.162 850.165Q125.634 851.049 126.143 851.912Q126.652 852.776 127.198 853.617Q127.743 854.458 128.323 855.275Q128.904 856.092 129.519 856.884Q130.133 857.676 130.781 858.441Q131.429 859.206 132.109 859.943Q132.788 860.679 133.498 861.387Q134.209 862.094 134.949 862.77Q135.688 863.447 136.456 864.091C154.958 879.437 179.433 875.039 201.552 875.508C210.217 891.846 223.28 906.303 239.999 914.567C245.884 917.475 252.553 919.417 258.08 922.884C258.866 923.377 259.681 923.706 260.573 923.941C236.468 923.466 212.235 923.786 188.121 923.924C169.292 924.032 150.004 925.7 131.509 921.2C111.357 916.296 95.0649 903.269 84.4438 885.598C78.5552 875.8 75.2147 865.528 74.0502 854.178C72.41 838.191 73.4883 821.533 73.4949 805.459L73.5033 715.908L73.4909 606.831L73.4203 573.469C73.3726 559.422 72.7507 545.233 76.1952 531.489C82.117 507.86 99.4929 488.747 119.959 476.385Z"/>
	<path fill="#DDE2ED" d="M120.061 239.396C137.473 238.176 155.442 239.494 172.911 239.629C178.975 239.675 185.491 240.112 191.509 239.35L192.067 239.495C192.221 263.781 190.947 287.989 191.048 312.256C191.078 319.396 190.261 327.601 191.741 334.533C181.003 350.911 173.004 366.788 170.803 386.55C170.292 391.137 169.838 396.419 170.703 400.981C173.713 422.686 178.743 438.967 192.737 456.291C191.721 457.735 191.477 458.999 191.309 460.735C190.137 472.78 191.14 485.505 191.153 497.619C191.164 508.534 190.169 525.949 191.712 536.233C191.784 536.712 191.834 536.833 191.959 537.243C205.94 535.997 220.292 537.07 234.356 536.866C230.885 542.706 227.211 548.632 225.553 555.292C222.028 569.45 222.18 621.118 225.686 635.395C227.418 642.448 232.516 647.555 235.165 654.098C220.884 653.643 206.505 653.969 192.213 653.964L192.066 686.309C192.034 693.497 191.579 700.951 192.649 708.073C186.512 707.991 179.931 707.642 175.14 712.206Q174.676 712.65 174.259 713.139Q173.843 713.628 173.477 714.157Q173.112 714.685 172.802 715.247Q172.491 715.81 172.239 716.401Q171.987 716.992 171.796 717.605Q171.605 718.218 171.476 718.848Q171.348 719.477 171.283 720.116Q171.219 720.756 171.219 721.398Q171.214 721.982 171.268 722.564Q171.322 723.146 171.435 723.719Q171.547 724.292 171.718 724.851Q171.888 725.409 172.114 725.948Q172.34 726.487 172.62 727Q172.899 727.513 173.23 727.995Q173.56 728.477 173.937 728.923Q174.314 729.369 174.735 729.774C179.479 734.31 186.604 733.21 192.603 732.988C192.243 741.491 190.471 755.011 192.784 762.95C186.493 762.795 180.267 762.524 175.334 767.173C172.991 769.381 171.514 772.425 171.561 775.675C171.607 778.748 173.086 781.617 175.317 783.681C180.086 788.093 186.694 788.064 192.783 787.985C192.555 797.662 192.818 807.309 192.516 816.997C186.186 816.975 179.718 816.796 174.92 821.691C172.89 823.761 171.597 826.603 171.786 829.538C172.004 832.916 173.94 835.938 176.555 838.002C181.464 841.876 187.144 841.586 193.023 841.489C193.058 852.801 195.996 864.89 200.619 875.189C205.577 874.989 210.808 874.486 215.742 875.073C211.038 875.571 206.278 875.477 201.552 875.508C179.433 875.039 154.958 879.437 136.456 864.091Q135.688 863.447 134.949 862.77Q134.209 862.094 133.498 861.387Q132.788 860.679 132.108 859.943Q131.429 859.206 130.781 858.441Q130.133 857.676 129.519 856.884Q128.904 856.092 128.323 855.275Q127.743 854.458 127.198 853.617Q126.652 852.776 126.143 851.912Q125.634 851.049 125.162 850.165Q124.69 849.28 124.256 848.377Q123.823 847.473 123.427 846.552Q123.032 845.631 122.676 844.694Q122.321 843.757 122.005 842.805Q121.689 841.854 121.415 840.89Q121.14 839.926 120.906 838.952Q120.672 837.977 120.48 836.993C117.921 823.633 119.09 809.199 119.285 795.663L119.54 754.397L119.991 560.731Q119.897 536.737 120.372 512.748C120.543 500.98 121.159 488.689 120.023 476.994L119.959 476.385C121.049 472.367 120.05 465.987 120.028 461.681L119.999 428.883L120.061 239.396Z"/>
	<path fill="#004BB7" d="M191.959 537.243C205.94 535.997 220.292 537.07 234.356 536.866C230.885 542.706 227.211 548.632 225.553 555.292C222.028 569.45 222.18 621.118 225.686 635.395C227.418 642.448 232.516 647.555 235.165 654.098C220.884 653.643 206.505 653.969 192.213 653.964C189.116 653.531 186.383 652.757 183.625 651.23C179.83 649.128 176.552 645.796 175.381 641.533C171.911 628.895 174 613.927 173.921 600.872C173.833 586.423 172.751 571.206 174.271 556.852C174.649 553.274 175.373 549.24 177.26 546.147C180.588 540.69 186.067 538.689 191.959 537.243Z"/>
	<path fill="#0B73E8" d="M923.269 493.62C934.9 505.463 944.468 517.728 948.306 534.194C952.364 551.598 950.967 570.788 950.884 588.559L950.713 645.67L950.569 840.076C950.355 863.037 942.935 883.82 926.38 900.17C907.78 918.539 886.63 924.777 861.104 924.497C812.812 923.967 764.48 924.371 716.183 924.373L441.081 924.414L329.005 924.394C306.225 924.394 283.33 924.882 260.573 923.941C259.681 923.706 258.866 923.377 258.08 922.884C252.553 919.417 245.884 917.475 239.999 914.567C223.28 906.303 210.217 891.846 201.552 875.508C206.278 875.477 211.038 875.571 215.742 875.073C225.951 875.774 236.835 875.01 247.111 874.999L313.515 874.977L525.779 874.999L751.249 875.002L811.789 875.031C829.002 875.178 846.35 875.8 863.548 874.696C871.892 874.161 881.106 871.767 887.581 866.199C893.989 861.505 898.72 855.822 901.988 848.542C904.347 843.287 905.543 837.835 905.899 832.102C906.949 815.186 906.1 797.989 906.073 781.037L906.082 689.801L906.069 599.502C906.071 582.936 906.838 565.951 905.719 549.437C905.165 541.28 903.22 534.103 900.346 526.476C901.935 521.539 910.562 512.633 914.009 507.724C917.24 503.122 920.108 498.271 923.269 493.62Z"/>
	<path fill="#FEFEFE" d="M192.737 456.291C211.551 476.204 234.817 488.826 262.649 489.506C270.508 489.698 279.87 489.185 287.528 487.181C288.105 487.542 288.25 487.684 289.005 487.864C292.28 488.64 297.153 488.095 300.581 488.193Q324.928 488.794 349.282 488.601L529.168 487.972C546.452 487.968 563.698 488.882 580.991 488.546C587.347 499.385 593.949 509.724 601.906 519.471Q604.425 522.519 607.059 525.468Q609.693 528.417 612.439 531.263Q615.184 534.108 618.037 536.846Q620.891 539.584 623.847 542.21Q626.803 544.835 629.859 547.346Q632.914 549.856 636.063 552.246Q639.213 554.637 642.452 556.905Q645.692 559.173 649.016 561.314Q652.34 563.455 655.744 565.467Q659.148 567.479 662.627 569.358Q666.106 571.238 669.655 572.982Q673.204 574.726 676.817 576.332Q680.43 577.938 684.103 579.404Q687.775 580.87 691.501 582.193Q695.228 583.517 699.002 584.696Q702.776 585.875 706.593 586.908C715.771 589.295 725.286 589.696 734.365 591.979C734.672 596.788 734.69 601.564 734.675 606.379C736.003 603.709 734.889 596.124 736.529 591.497C736.916 591.601 737.305 591.695 737.691 591.8C743.192 593.3 766.127 594.371 771.012 592.498C773.559 592.1 776.113 591.876 778.665 591.535Q782.363 591.004 786.039 590.336Q789.714 589.668 793.363 588.864Q797.011 588.06 800.628 587.122Q804.244 586.183 807.822 585.111Q811.401 584.039 814.938 582.835Q818.475 581.631 821.964 580.297Q825.454 578.963 828.891 577.5Q832.329 576.037 835.71 574.448Q839.091 572.859 842.411 571.146Q845.731 569.432 848.985 567.597Q852.239 565.762 855.423 563.807Q858.607 561.852 861.716 559.781Q864.825 557.709 867.855 555.524Q870.885 553.339 873.832 551.043Q876.779 548.747 879.639 546.343Q882.499 543.939 885.268 541.431C890.4 536.812 896.13 531.961 900.346 526.476C903.22 534.103 905.165 541.28 905.719 549.437C906.838 565.951 906.071 582.936 906.069 599.502L906.082 689.801L906.073 781.037C906.1 797.989 906.949 815.186 905.899 832.102C905.543 837.835 904.347 843.287 901.988 848.542C898.72 855.822 893.989 861.505 887.581 866.199C881.106 871.767 871.892 874.161 863.548 874.696C846.35 875.8 829.002 875.178 811.789 875.031L751.249 875.002L525.779 874.999L313.515 874.977L247.111 874.999C236.835 875.01 225.951 875.774 215.742 875.073C210.808 874.486 205.577 874.989 200.619 875.189C195.996 864.89 193.058 852.801 193.023 841.489C187.144 841.586 181.464 841.876 176.555 838.002C173.94 835.938 172.004 832.916 171.786 829.538C171.597 826.603 172.89 823.761 174.92 821.691C179.718 816.796 186.186 816.975 192.516 816.997C192.818 807.309 192.555 797.662 192.783 787.985C186.694 788.064 180.086 788.093 175.317 783.681C173.086 781.617 171.607 778.748 171.561 775.675C171.514 772.425 172.991 769.381 175.334 767.173C180.267 762.524 186.493 762.795 192.784 762.95C190.471 755.011 192.243 741.491 192.603 732.988C186.604 733.21 179.479 734.31 174.735 729.774Q174.314 729.369 173.937 728.923Q173.56 728.477 173.23 727.995Q172.899 727.513 172.62 727Q172.34 726.487 172.114 725.948Q171.888 725.409 171.718 724.851Q171.547 724.292 171.435 723.719Q171.322 723.146 171.268 722.564Q171.214 721.982 171.219 721.398Q171.219 720.756 171.283 720.116Q171.348 719.477 171.476 718.848Q171.605 718.218 171.796 717.605Q171.987 716.992 172.239 716.401Q172.491 715.81 172.802 715.247Q173.112 714.685 173.477 714.157Q173.843 713.628 174.259 713.139Q174.676 712.65 175.14 712.206C179.931 707.642 186.512 707.991 192.649 708.073C191.579 700.951 192.034 693.497 192.066 686.309L192.213 653.964C206.505 653.969 220.884 653.643 235.165 654.098C232.516 647.555 227.418 642.448 225.686 635.395C222.18 621.118 222.028 569.45 225.553 555.292C227.211 548.632 230.885 542.706 234.356 536.866C220.292 537.07 205.94 535.997 191.959 537.243C191.834 536.833 191.784 536.712 191.712 536.233C190.169 525.949 191.164 508.534 191.153 497.619C191.14 485.505 190.137 472.78 191.309 460.735C191.477 458.999 191.721 457.735 192.737 456.291ZM771.012 592.498C766.127 594.371 743.192 593.3 737.691 591.8C737.305 591.695 736.916 591.601 736.529 591.497C734.889 596.124 736.003 603.709 734.675 606.379L734.535 644.175C736.626 644.11 738.727 643.999 740.819 643.988L740.928 676.554C740.941 681.36 741.624 687.333 740.655 691.964L741.026 692.064L741.557 765.809C741.632 780.888 739.532 796.622 742.935 811.481C744.8 819.623 749.785 828.056 755.647 833.949C759.333 837.655 763.551 840.65 767.85 843.59C770.005 845.063 772.881 846.503 774.656 848.405C782.283 845.82 788.502 841.308 794.086 835.575C795.705 833.913 797.198 831.769 799.192 830.566L798.282 832.707C799.086 833.49 799.276 833.454 800.325 833.738C801.53 834.064 803.241 834.577 803.892 835.764C804.609 837.071 804.491 838.68 804.562 840.133C804.567 840.238 804.576 840.342 804.582 840.447C804.512 844.581 804.798 848.711 805.025 852.838C804.961 854.303 804.673 855.98 805.264 857.353L805.959 857.675C811.713 858.702 817.616 859.375 823.438 859.885C828.938 860.467 834.45 861.105 839.976 861.36C855.438 862.073 872.853 860.968 887.581 866.199C893.989 861.505 898.72 855.822 901.988 848.542C904.347 843.287 905.543 837.835 905.899 832.102C906.949 815.186 906.1 797.989 906.073 781.037L906.082 689.801L906.069 599.502C906.071 582.936 906.838 565.951 905.719 549.437C905.165 541.28 903.22 534.103 900.346 526.476C896.13 531.961 890.4 536.812 885.268 541.431Q882.499 543.939 879.639 546.343Q876.779 548.747 873.832 551.043Q870.885 553.339 867.855 555.524Q864.825 557.709 861.716 559.781Q858.607 561.852 855.423 563.807Q852.239 565.762 848.985 567.597Q845.731 569.432 842.411 571.146Q839.091 572.859 835.71 574.448Q832.329 576.037 828.891 577.5Q825.454 578.963 821.964 580.297Q818.475 581.631 814.938 582.835Q811.401 584.039 807.822 585.111Q804.244 586.183 800.627 587.122Q797.011 588.06 793.363 588.864Q789.714 589.668 786.039 590.336Q782.363 591.004 778.665 591.535C776.113 591.876 773.559 592.1 771.012 592.498Z"/>
	<path fill="#F13324" d="M734.535 644.175C736.626 644.11 738.727 643.999 740.819 643.988L740.928 676.554C740.941 681.36 741.624 687.333 740.655 691.964C726.535 692.387 712.291 692 698.158 692.004C695.592 684.85 697.428 653.82 697.553 644.018C709.793 644.073 722.34 645.327 734.535 644.175Z"/>
	<path fill="#F8921E" d="M562.252 704.024C572.869 718.471 590.742 734.578 603.744 747.585C610.782 754.626 617.595 762.765 625.443 768.889C627.566 770.546 630.504 771.783 633.177 772.153C637.138 772.7 642.088 770.971 645.219 768.586C649.135 765.603 651.251 760.675 652.663 756.082C653.157 754.476 653.185 752.947 654.189 751.551C659.386 757.633 662.429 764.302 662.66 772.388C662.871 779.802 660.254 786.705 655 791.987C650.068 796.944 643.501 799.829 636.459 799.67C630.837 799.543 625.562 797.462 621.002 794.265C612.049 787.989 603.221 776.911 595.54 768.897L547.636 718.985C552.896 714.507 557.611 709.135 562.252 704.024Z"/>
	<path fill="#F2B82F" d="M585.146 679.155C590.984 686.672 597.796 693.313 604.41 700.136Q618.302 714.753 632.418 729.155C639.725 736.549 647.429 743.644 654.189 751.551C653.185 752.947 653.157 754.476 652.663 756.082C651.251 760.675 649.135 765.603 645.219 768.586C642.088 770.971 637.138 772.7 633.177 772.153C630.504 771.783 627.566 770.546 625.443 768.889C617.595 762.765 610.782 754.626 603.744 747.585C590.742 734.578 572.869 718.471 562.252 704.024C569.877 695.78 578.045 687.843 585.146 679.155Z"/>
	<path fill="#0B73E8" d="M192.516 816.997Q237.507 817.682 282.502 817.339L315.425 817.223C321.448 817.209 327.845 816.774 333.815 817.525C336.969 817.921 339.495 818.67 341.742 821.029C344.29 823.704 345.204 826.911 345.055 830.543C344.926 833.683 343.713 836.313 341.372 838.42C338.91 840.637 335.237 841.19 332.04 841.453C319.48 842.486 303.108 841.443 290.098 841.468L193.023 841.489C187.144 841.586 181.464 841.876 176.555 838.002C173.94 835.938 172.004 832.916 171.786 829.538C171.597 826.603 172.89 823.761 174.92 821.691C179.718 816.796 186.186 816.975 192.516 816.997Z"/>
	<path fill="#029DF6" d="M740.655 691.964L741.026 692.064L741.557 765.809C741.632 780.888 739.532 796.622 742.935 811.481C744.8 819.623 749.785 828.056 755.647 833.949C759.333 837.655 763.551 840.65 767.85 843.59C770.005 845.063 772.881 846.503 774.656 848.405C759.721 853.35 745.724 853.513 731.247 846.853C723.393 843.241 716.598 838.225 711.147 831.486C696.173 812.972 699.088 789.763 699.13 767.544L699.112 716.422C699.152 709.064 700.998 699.378 698.348 692.48C698.286 692.321 698.221 692.163 698.158 692.004C712.291 692 726.535 692.387 740.655 691.964Z"/>
	<path fill="#004BB7" d="M192.784 762.95L383.666 763.019L434.246 763.055C444.274 762.971 454.549 761.86 464.544 762.653C468.732 762.985 473.307 763.993 476.388 767.056C478.636 769.289 479.587 772.192 479.535 775.321C479.476 778.791 478.178 781.527 475.672 783.927C472.295 787.162 468.088 787.608 463.634 787.962C454.204 788.711 444.405 787.868 434.944 787.727C420.172 787.508 405.372 787.706 390.597 787.703L266.297 787.693C241.809 787.695 217.262 787.341 192.783 787.985C186.694 788.064 180.086 788.093 175.317 783.681C173.086 781.617 171.607 778.748 171.561 775.675C171.514 772.425 172.991 769.381 175.334 767.173C180.267 762.524 186.493 762.795 192.784 762.95Z"/>
	<path fill="#004BB7" d="M192.649 708.073L385.139 708.022L436.808 707.972C446.359 707.917 456.156 707.19 465.665 708.064C469.353 708.403 473.12 709.108 475.79 711.905C478.006 714.227 479.114 717.47 479.954 720.507C478.464 725.043 477.075 729.638 472.484 731.949C470.315 733.04 467.94 733.285 465.551 733.399C454.804 733.908 443.9 733.529 433.131 733.523L363.269 733.009C338.78 732.75 314.259 733.316 289.761 733.214C257.381 733.078 224.979 732.36 192.603 732.988C186.604 733.21 179.479 734.31 174.735 729.774Q174.314 729.369 173.937 728.923Q173.56 728.477 173.23 727.995Q172.899 727.513 172.62 727Q172.34 726.487 172.114 725.948Q171.888 725.409 171.718 724.851Q171.547 724.292 171.435 723.719Q171.322 723.146 171.268 722.564Q171.214 721.982 171.219 721.398Q171.219 720.756 171.283 720.116Q171.348 719.477 171.476 718.848Q171.605 718.218 171.796 717.605Q171.987 716.992 172.239 716.401Q172.491 715.81 172.802 715.247Q173.112 714.685 173.477 714.157Q173.843 713.628 174.259 713.139Q174.676 712.65 175.14 712.206C179.931 707.642 186.512 707.991 192.649 708.073Z"/>
	<path fill="#0B73E8" d="M234.356 536.866C239.37 536.226 244.704 536.502 249.761 536.479L277.129 536.365C287.511 536.293 298.273 534.928 308.583 536.141C312.51 536.603 316.179 537.584 319.398 539.984C323.672 543.169 325.837 547.82 326.509 553.015C327.987 564.459 326.521 576.764 326.537 588.308C326.553 599.712 326.948 611.099 326.824 622.506C326.775 626.968 326.97 631.709 326.36 636.128C325.888 639.547 324.62 642.871 322.481 645.596C317.774 651.592 309.964 653.56 302.723 654.274C292.71 655.26 282.515 654.228 272.472 654.25C261.319 654.273 245.834 655.729 235.165 654.098C232.516 647.555 227.418 642.448 225.686 635.395C222.18 621.118 222.028 569.45 225.553 555.292C227.211 548.632 230.885 542.706 234.356 536.866Z"/>
	<path fill="#004BB7" d="M499.781 663.486C495.33 665.665 490.813 667.63 486.117 669.22C464.908 676.401 443.316 674.649 423.361 664.607Q421.601 663.704 419.887 662.717Q418.172 661.73 416.507 660.663Q414.842 659.595 413.231 658.448Q411.619 657.301 410.064 656.078Q408.51 654.856 407.015 653.559Q405.521 652.263 404.091 650.897Q402.661 649.53 401.298 648.097Q399.935 646.663 398.643 645.166Q397.35 643.668 396.131 642.11Q394.913 640.552 393.77 638.938Q392.627 637.323 391.564 635.656Q390.5 633.988 389.517 632.271Q388.535 630.554 387.636 628.792Q386.738 627.03 385.925 625.227Q385.112 623.423 384.386 621.583Q383.661 619.743 383.025 617.87C376.202 597.179 378.455 573.719 388.225 554.347Q388.679 553.45 389.155 552.565Q389.631 551.679 390.129 550.805Q390.626 549.932 391.145 549.071Q391.664 548.209 392.204 547.361Q392.744 546.513 393.304 545.678Q393.865 544.844 394.445 544.023Q395.026 543.203 395.627 542.396Q396.228 541.59 396.848 540.799Q397.469 540.008 398.108 539.232Q398.748 538.457 399.406 537.697Q400.064 536.937 400.741 536.194Q401.418 535.45 402.113 534.724Q402.808 533.997 403.52 533.288Q404.233 532.578 404.963 531.887Q405.692 531.195 406.439 530.522Q407.185 529.848 407.948 529.193Q408.711 528.538 409.489 527.902Q410.268 527.266 411.062 526.649Q411.856 526.033 412.665 525.436Q413.474 524.838 414.297 524.261Q415.12 523.684 415.957 523.128Q416.794 522.571 417.645 522.035Q418.496 521.499 419.359 520.984Q420.223 520.469 421.098 519.975Q421.974 519.482 422.862 519.01Q423.75 518.538 424.649 518.088Q425.548 517.637 426.457 517.21Q427.367 516.782 428.287 516.376Q429.207 515.971 430.137 515.588Q431.067 515.205 432.005 514.846Q432.944 514.486 433.891 514.149Q434.839 513.812 435.794 513.499C456.338 506.801 481.381 508.2 500.744 518.123C519.791 527.884 533.17 545.026 539.547 565.287C546.58 587.631 543.328 610.709 532.557 631.262C537.858 636.671 542.854 642.374 548.221 647.723C555.981 655.459 564.314 662.871 571.046 671.55C573.658 670.137 575.989 669.205 579.021 669.542C581.179 669.782 583.331 670.424 584.599 672.336C585.944 674.362 585.59 676.908 585.146 679.155C578.045 687.843 569.877 695.78 562.252 704.024C557.611 709.135 552.896 714.507 547.636 718.985C546.47 719.573 545.324 720.131 544.032 720.384C542.247 720.733 540.035 720.655 538.556 719.451C536.97 718.16 536.159 716.363 535.861 714.364C535.232 710.142 536.732 707.681 539.077 704.4C526.16 690.604 512.852 677.143 499.781 663.486Z"/>
	<path fill="#029DF6" d="M463.152 521.224C479.754 520.657 498.474 527.804 510.702 538.973C523.957 551.081 531.627 569.759 532.383 587.554C533.203 606.883 524.949 625.203 511.969 639.212C498.8 653.425 480.033 660.971 460.875 661.675C444.524 662.513 427.683 655.57 415.524 644.888C400.955 632.089 392.688 614.549 391.586 595.232C390.555 577.139 397.398 558.599 409.509 545.199C423.902 529.274 442.001 522.346 463.152 521.224Z"/>
	<path fill="#81C7F8" d="M461.729 531.178C462.208 531.106 462.685 531.027 463.167 530.981C477.791 529.61 493.825 535.132 505.096 544.369C517.134 554.236 524.198 568.385 525.685 583.816C527.32 600.787 521.236 617.059 510.504 630.091C500.283 642.502 484.816 651.927 468.62 653.418C453.996 655.42 438.124 649.805 426.433 641.162Q425.282 640.328 424.175 639.437Q423.067 638.546 422.006 637.601Q420.944 636.656 419.932 635.659Q418.919 634.661 417.958 633.615Q416.997 632.568 416.089 631.474Q415.182 630.38 414.33 629.242Q413.478 628.104 412.685 626.925Q411.892 625.746 411.159 624.529Q410.425 623.311 409.754 622.058Q409.083 620.805 408.475 619.521Q407.868 618.236 407.326 616.922Q406.784 615.608 406.308 614.269Q405.832 612.93 405.424 611.568Q405.017 610.207 404.678 608.826Q404.339 607.446 404.069 606.051Q403.8 604.655 403.601 603.248Q403.384 601.715 403.241 600.174Q403.099 598.633 403.032 597.087Q402.966 595.54 402.974 593.992Q402.983 592.445 403.068 590.899Q403.152 589.354 403.312 587.814Q403.472 586.275 403.707 584.745Q403.942 583.215 404.251 581.698Q404.561 580.182 404.944 578.682Q405.327 577.182 405.783 575.703Q406.239 574.224 406.766 572.769Q407.294 571.314 407.892 569.886Q408.49 568.459 409.157 567.062Q409.824 565.665 410.559 564.303Q411.294 562.941 412.094 561.616Q412.894 560.291 413.758 559.007Q414.622 557.722 415.548 556.482C427.161 541.2 443.107 533.8 461.729 531.178Z"/>
	<path fill="#FEFEFE" d="M456.086 551.591C456.993 551.534 457.902 551.473 458.81 551.455C461.392 551.403 463.345 551.822 465.189 553.741C471.065 559.855 468.354 578.614 467.971 586.51C473.578 586.441 479.18 585.983 484.791 585.963C489.777 585.946 496.985 585.962 500.642 589.86C502.58 591.925 502.714 594.556 502.482 597.249C502.159 600.986 500.25 602.787 497.508 605.082C488.143 607.14 477.52 606.064 467.955 605.805C468.115 613.953 469.757 624.137 467.018 631.953C465.778 635.488 464.134 636.864 460.831 638.476Q459.708 638.537 458.584 638.534C456.119 638.506 453.89 637.725 452.189 635.894C446.598 629.877 449.014 613.79 449.433 605.995C441.187 606.044 423.102 608.771 416.929 602.755C415.25 601.119 414.469 598.806 414.432 596.496C414.394 594.203 414.973 591.937 416.623 590.268C422.747 584.07 440.61 586.356 448.994 586.515C448.941 577.595 447.001 566.582 449.889 558.013C451.098 554.426 452.728 553.176 456.086 551.591Z"/>
	<path fill="#F13324" d="M456.897 586.494C457.915 586.471 458.898 586.441 459.904 586.635C462.734 587.178 465.481 588.678 467.031 591.171C468.387 593.352 468.674 595.993 467.931 598.435C466.85 601.984 464.234 603.83 461.108 605.492C459.391 605.888 458.037 606 456.3 605.609C453.978 605.086 452.034 604.129 450.771 602.043C449.376 599.74 449.182 596.917 449.896 594.357C451.006 590.377 453.5 588.499 456.897 586.494Z"/>
	<defs>
		<linearGradient id="gradient_0" gradientUnits="userSpaceOnUse" x1="826.09979" y1="845.01678" x2="809.5686" y2="854.76874">
			<stop offset="0" stop-color="#FFFEFD" stop-opacity="0.25490198"/>
			<stop offset="1" stop-color="#FFFEFD" stop-opacity="0.45490196"/>
		</linearGradient>
	</defs>
	<path fill="url(#gradient_0)" d="M804.582 840.447C807.346 839.019 821.765 838.761 824.926 839.758C826.807 840.351 828.321 841.429 829.186 843.234C830.354 845.671 830.262 849.613 829.341 852.118C828.492 854.423 825.891 858.228 823.582 859.285C823.37 859.382 823.126 859.385 822.899 859.435L823.438 859.885C817.616 859.375 811.713 858.702 805.959 857.675L805.264 857.353C804.673 855.98 804.961 854.303 805.025 852.838C804.798 848.711 804.512 844.581 804.582 840.447ZM805.025 852.838C804.961 854.303 804.673 855.98 805.264 857.353L805.959 857.675C807.114 857.339 808.818 856.97 809.642 856.056C811.683 853.79 807.234 849.527 806.786 845.73C806.765 845.545 806.747 845.36 806.727 845.175C805.74 847.096 805.93 850.066 805.211 852.283L805.025 852.838Z"/>
	<path fill="#FEFEFE" fill-opacity="0.48627451" d="M805.025 852.838L805.211 852.283C805.93 850.066 805.74 847.096 806.727 845.175C806.747 845.36 806.765 845.545 806.786 845.73C807.234 849.527 811.683 853.79 809.642 856.056C808.818 856.97 807.114 857.339 805.959 857.675L805.264 857.353C804.673 855.98 804.961 854.303 805.025 852.838Z"/>
	<path fill="#003E94" d="M736.529 591.497C736.916 591.601 737.305 591.695 737.691 591.8C743.192 593.3 766.127 594.371 771.012 592.498C770.859 609.633 770.913 626.788 770.59 643.919L740.819 643.988C738.727 643.999 736.626 644.11 734.535 644.175L734.675 606.379C736.003 603.709 734.889 596.124 736.529 591.497Z"/>
	<path fill="#F95630" d="M770.59 643.919L809.14 644.016C809.151 660.025 808.746 676.145 809.317 692.138C786.587 692.685 763.773 691.79 741.026 692.064L740.655 691.964C741.624 687.333 740.941 681.36 740.928 676.554L740.819 643.988L770.59 643.919Z"/>
	<path fill="#81C7F8" d="M741.026 692.064C763.773 691.79 786.587 692.685 809.317 692.138Q808.959 728.271 809.05 764.406C809.077 778.65 810.281 793.189 808.097 807.325C806.96 814.689 804.036 824.778 799.192 830.566C797.198 831.769 795.705 833.913 794.086 835.575C788.502 841.308 782.283 845.82 774.656 848.405C772.881 846.503 770.005 845.063 767.85 843.59C763.551 840.65 759.333 837.655 755.647 833.949C749.785 828.056 744.8 819.623 742.935 811.481C739.532 796.622 741.632 780.888 741.557 765.809L741.026 692.064Z"/>
	<path fill="#0B73E8" d="M237.728 114.02L617.031 113.946L736.589 113.965C752.204 114.052 771.003 112.476 786.198 114.511C798.013 116.093 808.342 121.708 816.699 130.133C820.797 134.264 824.166 139.058 827.455 143.84C825.127 144.191 822.598 144.452 820.387 145.275C811.495 148.587 803.694 157.851 798.207 165.21C796.729 167.192 795.257 169.243 794.084 171.423C793.315 172.682 792.799 173.413 793.051 174.962C793.779 179.43 799.158 184.67 802.018 188.125C800.492 192.903 798.849 197.674 797.671 202.552C802.794 203.64 807.776 205.296 812.739 206.953C818.533 208.641 824.689 210.147 830.129 212.796C854.085 223.619 874.995 235.229 893.859 253.908C897.829 258.328 901.875 262.7 905.697 267.249C912.261 275.649 918.229 284.327 924.131 293.2C929.48 303.819 935.009 314.109 939.154 325.288C954.923 367.817 954.092 414.84 939.994 457.69C935.879 470.198 930.457 482.576 923.269 493.62C920.108 498.271 917.24 503.122 914.009 507.724C910.562 512.633 901.935 521.539 900.346 526.476C896.13 531.961 890.4 536.812 885.268 541.431Q882.499 543.939 879.639 546.343Q876.779 548.747 873.832 551.043Q870.885 553.339 867.855 555.524Q864.825 557.709 861.716 559.781Q858.607 561.852 855.423 563.807Q852.239 565.762 848.985 567.597Q845.731 569.432 842.411 571.146Q839.091 572.859 835.71 574.448Q832.329 576.037 828.891 577.5Q825.454 578.963 821.964 580.297Q818.475 581.631 814.938 582.835Q811.401 584.039 807.822 585.111Q804.244 586.183 800.627 587.122Q797.011 588.06 793.363 588.864Q789.714 589.668 786.039 590.336Q782.363 591.004 778.665 591.535C776.113 591.876 773.559 592.1 771.012 592.498C766.127 594.371 743.192 593.3 737.691 591.8C737.305 591.695 736.916 591.601 736.529 591.497C734.889 596.124 736.003 603.709 734.675 606.379C734.69 601.564 734.672 596.788 734.365 591.979C725.286 589.696 715.771 589.295 706.593 586.908Q702.776 585.875 699.002 584.696Q695.228 583.517 691.501 582.193Q687.775 580.87 684.103 579.404Q680.43 577.938 676.817 576.332Q673.204 574.726 669.655 572.982Q666.106 571.238 662.627 569.358Q659.148 567.479 655.744 565.467Q652.34 563.455 649.016 561.314Q645.692 559.173 642.452 556.905Q639.213 554.637 636.063 552.246Q632.914 549.856 629.859 547.346Q626.803 544.835 623.847 542.21Q620.891 539.584 618.037 536.846Q615.184 534.108 612.439 531.263Q609.693 528.417 607.059 525.468Q604.425 522.519 601.906 519.471C593.949 509.724 587.347 499.385 580.991 488.546C563.698 488.882 546.452 487.968 529.168 487.972L349.282 488.601Q324.928 488.794 300.581 488.193C297.153 488.095 292.28 488.64 289.005 487.864C288.25 487.684 288.105 487.542 287.528 487.181C279.87 489.185 270.508 489.698 262.649 489.506C234.817 488.826 211.551 476.204 192.737 456.291C178.743 438.967 173.713 422.686 170.703 400.981C169.838 396.419 170.292 391.137 170.803 386.55C173.004 366.788 181.003 350.911 191.741 334.533C190.261 327.601 191.078 319.396 191.048 312.256C190.947 287.989 192.221 263.781 192.067 239.495L191.509 239.35C192.146 225.381 192.265 211.679 191.955 197.699C194.404 196.189 196.649 194.743 198.52 192.501C201.647 188.753 203.366 184.013 202.783 179.11C202.11 173.453 198.789 169.646 194.565 166.188C199.076 149.878 211.323 133.768 224.551 123.474C227.405 121.253 233.833 117.91 235.87 115.365C236.411 114.688 236.978 114.429 237.728 114.02Z"/>
	<path fill="#FEFEFE" d="M359.294 164.101C362.86 163.854 366.11 163.98 369.433 165.449Q370.159 165.772 370.849 166.166Q371.539 166.559 372.186 167.02Q372.834 167.48 373.432 168.003Q374.03 168.525 374.574 169.105Q375.117 169.684 375.6 170.315Q376.083 170.946 376.501 171.621Q376.918 172.297 377.267 173.011Q377.615 173.725 377.891 174.47Q378.196 175.304 378.418 176.163Q378.64 177.022 378.777 177.9Q378.914 178.777 378.964 179.663Q379.014 180.549 378.978 181.436Q378.941 182.323 378.817 183.202Q378.694 184.081 378.485 184.944Q378.276 185.806 377.983 186.645Q377.69 187.483 377.317 188.288C374.665 194.026 370.268 196.419 364.647 198.505C361.373 198.615 358.039 198.191 355.021 196.864Q354.259 196.535 353.535 196.131Q352.81 195.726 352.131 195.25Q351.451 194.773 350.824 194.23Q350.196 193.687 349.628 193.083Q349.059 192.479 348.554 191.82Q348.05 191.162 347.615 190.455Q347.18 189.748 346.82 189.001Q346.459 188.253 346.177 187.473Q346.023 187.057 345.89 186.634Q345.757 186.21 345.646 185.781Q345.534 185.351 345.445 184.916Q345.356 184.482 345.288 184.043Q345.221 183.604 345.177 183.163Q345.132 182.721 345.109 182.278Q345.087 181.835 345.087 181.391Q345.088 180.947 345.11 180.504Q345.133 180.061 345.178 179.619Q345.224 179.178 345.291 178.739Q345.359 178.301 345.448 177.866Q345.538 177.432 345.65 177.002Q345.762 176.573 345.895 176.149Q346.028 175.726 346.183 175.31Q346.338 174.894 346.513 174.487Q346.689 174.079 346.885 173.681C349.529 168.322 353.902 165.953 359.294 164.101Z"/>
	<path fill="#09C08E" d="M301.973 163.55C305.267 163.389 308.418 163.739 311.481 165.028Q311.898 165.2 312.306 165.394Q312.714 165.587 313.112 165.801Q313.51 166.014 313.896 166.248Q314.282 166.482 314.656 166.735Q315.03 166.989 315.39 167.261Q315.751 167.533 316.097 167.823Q316.443 168.113 316.774 168.42Q317.104 168.727 317.419 169.051Q317.734 169.375 318.032 169.714Q318.33 170.053 318.61 170.407Q318.89 170.761 319.151 171.129Q319.413 171.497 319.656 171.878Q319.898 172.259 320.121 172.652Q320.344 173.044 320.547 173.448Q320.749 173.851 320.931 174.265Q321.113 174.678 321.273 175.1Q321.433 175.508 321.571 175.924Q321.71 176.34 321.826 176.763Q321.943 177.186 322.038 177.614Q322.132 178.042 322.204 178.474Q322.276 178.907 322.326 179.342Q322.376 179.778 322.403 180.216Q322.43 180.653 322.434 181.092Q322.438 181.53 322.42 181.968Q322.401 182.406 322.36 182.843Q322.319 183.279 322.255 183.713Q322.191 184.147 322.105 184.577Q322.018 185.007 321.91 185.431Q321.802 185.856 321.671 186.275Q321.541 186.693 321.389 187.105Q321.237 187.516 321.064 187.919Q320.891 188.322 320.697 188.715C317.882 194.413 313.299 196.528 307.629 198.476C303.997 198.566 300.728 198.237 297.392 196.656Q296.984 196.465 296.586 196.254Q296.188 196.043 295.801 195.812Q295.414 195.58 295.04 195.33Q294.665 195.08 294.303 194.811Q293.942 194.542 293.595 194.255Q293.247 193.968 292.915 193.664Q292.582 193.36 292.265 193.039Q291.949 192.719 291.649 192.383Q291.349 192.047 291.066 191.696Q290.783 191.345 290.518 190.98Q290.254 190.616 290.008 190.238Q289.762 189.861 289.536 189.471Q289.309 189.081 289.103 188.681Q288.896 188.28 288.71 187.87Q288.524 187.46 288.359 187.04Q288.195 186.621 288.051 186.194C286.566 181.788 286.784 176.903 288.945 172.757C291.792 167.294 296.419 165.292 301.973 163.55Z"/>
	<path fill="#F2B82F" d="M241.223 163.555C245.026 163.432 248.43 163.449 252.029 164.936C256.17 166.647 259.419 169.788 261.141 173.934C263.055 178.543 262.869 183.988 260.774 188.503C258.239 193.966 253.669 196.621 248.217 198.476C244.573 198.603 241.357 198.525 237.893 197.153Q237.109 196.849 236.36 196.468Q235.611 196.088 234.903 195.634Q234.196 195.18 233.538 194.657Q232.879 194.135 232.276 193.549Q231.674 192.963 231.132 192.32Q230.591 191.677 230.117 190.983Q229.643 190.289 229.241 189.551Q228.839 188.813 228.513 188.038Q228.166 187.223 227.901 186.377Q227.636 185.532 227.456 184.664Q227.276 183.796 227.183 182.915Q227.09 182.034 227.084 181.148Q227.079 180.262 227.161 179.38Q227.244 178.497 227.413 177.628Q227.582 176.758 227.837 175.909Q228.092 175.06 228.429 174.241C230.903 168.348 235.58 165.735 241.223 163.555Z"/>
	<path fill="#FEFEFE" d="M192.067 239.495Q342.888 238.712 493.707 239.506L589.235 239.511L617.497 239.479C622.583 239.474 628.11 239.097 633.148 239.747C610.294 260.317 595.776 277.443 580.392 304.025L400.542 303.965C365.578 303.96 330.57 303.601 295.612 304.097C288.624 302.397 281.652 300.546 274.486 299.778C254.465 297.632 232.784 302.888 215.646 313.348C206.524 318.915 198.54 326.313 191.741 334.533C190.261 327.601 191.078 319.396 191.048 312.256C190.947 287.989 192.221 263.781 192.067 239.495Z"/>
	<path fill="#81C7F8" d="M191.741 334.533C198.54 326.313 206.524 318.915 215.646 313.348C232.784 302.888 254.465 297.632 274.486 299.778C281.652 300.546 288.624 302.397 295.612 304.097C330.57 303.601 365.578 303.96 400.542 303.965L580.392 304.025C555.773 358.608 550.722 411.686 572.077 468.311Q575.906 478.705 580.991 488.546C563.698 488.882 546.452 487.968 529.168 487.972L349.282 488.601Q324.928 488.794 300.581 488.193C297.153 488.095 292.28 488.64 289.005 487.864C288.25 487.684 288.105 487.542 287.528 487.181C279.87 489.185 270.508 489.698 262.649 489.506C234.817 488.826 211.551 476.204 192.737 456.291C178.743 438.967 173.713 422.686 170.703 400.981C169.838 396.419 170.292 391.137 170.803 386.55C173.004 366.788 181.003 350.911 191.741 334.533Z"/>
	<path fill="#0B73E8" d="M360.031 384.47L463.506 384.172L492.391 383.96C498.008 383.916 503.917 383.584 509.503 384.215C512.677 384.573 515.596 385.071 517.897 387.472C518.885 388.504 519.668 389.77 520.451 390.96L520.523 398.586C518.634 401.817 516.538 403.824 513.52 405.939C494.929 406.755 476.322 406.06 457.724 406.017L359.518 405.989C360.765 399.29 360.055 391.303 360.031 384.47Z"/>
	<path fill="#81C7F8" d="M191.741 334.533C198.54 326.313 206.524 318.915 215.646 313.348C232.784 302.888 254.465 297.632 274.486 299.778C281.652 300.546 288.624 302.397 295.612 304.097C322.366 314.638 341.952 332.85 353.388 359.42C356.865 367.496 358.972 375.754 360.031 384.47C360.055 391.303 360.765 399.29 359.518 405.989C354.576 428.846 345.805 448.33 328.415 464.355C325.784 466.779 322.593 470.279 319.477 471.941C318.965 472.215 318.823 472.218 318.325 472.327C310.777 480.203 297.712 483.99 287.528 487.181C279.87 489.185 270.508 489.698 262.649 489.506C234.817 488.826 211.551 476.204 192.737 456.291C178.743 438.967 173.713 422.686 170.703 400.981C169.838 396.419 170.292 391.137 170.803 386.55C173.004 366.788 181.003 350.911 191.741 334.533Z"/>
	<path fill="#F8921E" d="M170.703 400.981C178.07 400.416 185.355 400.637 192.719 401.048C195.454 420.77 204.77 439.626 220.842 451.805C236.162 463.416 256.017 469.141 275.167 466.408C286.023 464.859 296.139 460.989 305.43 455.23C309.987 460.649 314.413 466.426 318.325 472.327C310.777 480.203 297.712 483.99 287.528 487.181C279.87 489.185 270.508 489.698 262.649 489.506C234.817 488.826 211.551 476.204 192.737 456.291C178.743 438.967 173.713 422.686 170.703 400.981Z"/>
	<path fill="#0B73E8" d="M301.742 406.005C297.542 414.655 292.946 422.473 284.281 427.237C276.46 431.537 267.697 432.886 259.073 430.36C249.828 427.652 241.949 420.924 237.378 412.501Q236.982 411.782 236.623 411.045Q236.263 410.308 235.941 409.553Q235.619 408.799 235.334 408.029Q235.05 407.26 234.804 406.477Q234.558 405.695 234.351 404.901Q234.144 404.107 233.977 403.304Q233.81 402.501 233.683 401.69Q233.556 400.88 233.47 400.064Q233.383 399.248 233.338 398.429Q233.292 397.61 233.287 396.79Q233.282 395.969 233.317 395.15Q233.353 394.33 233.43 393.513Q233.506 392.697 233.623 391.885Q233.74 391.073 233.897 390.268Q234.054 389.462 234.251 388.666Q234.448 387.87 234.684 387.084C237.304 378.444 243.904 371.069 251.827 366.878C260.563 362.256 270.19 361.338 279.615 364.363C290.162 367.748 295.641 374.987 300.447 384.499L337.839 384.516C338.202 391.614 338.388 398.954 337.346 406.004L301.742 406.005Z"/>
	<path fill="#00B9C9" d="M191.741 334.533C198.54 326.313 206.524 318.915 215.646 313.348C232.784 302.888 254.465 297.632 274.486 299.778C281.652 300.546 288.624 302.397 295.612 304.097C322.366 314.638 341.952 332.85 353.388 359.42C356.865 367.496 358.972 375.754 360.031 384.47C360.055 391.303 360.765 399.29 359.518 405.989C354.576 428.846 345.805 448.33 328.415 464.355C325.784 466.779 322.593 470.279 319.477 471.941C318.965 472.215 318.823 472.218 318.325 472.327C314.413 466.426 309.987 460.649 305.43 455.23C322.173 443.374 333.14 426.028 337.346 406.004C338.388 398.954 338.202 391.614 337.839 384.516C333.105 363.528 323.933 345.251 305.299 333.419C287.798 322.306 268.765 319.142 248.55 323.814C229.939 328.115 214.719 339.019 204.691 355.273C195.498 370.172 193.119 383.816 192.719 401.048C185.355 400.637 178.07 400.416 170.703 400.981C169.838 396.419 170.292 391.137 170.803 386.55C173.004 366.788 181.003 350.911 191.741 334.533Z"/>
	<path fill="#004BB7" d="M633.148 239.747C639.085 237.45 649.131 229.018 655.129 225.244C660.202 222.052 665.491 219.531 670.856 216.901Q672.683 216.007 674.528 215.153Q676.374 214.298 678.237 213.483Q680.1 212.668 681.981 211.894Q683.861 211.119 685.757 210.384Q687.654 209.65 689.566 208.956Q691.477 208.263 693.404 207.61Q695.33 206.957 697.269 206.346Q699.209 205.735 701.161 205.165Q703.114 204.596 705.078 204.068Q707.042 203.54 709.017 203.055Q710.992 202.569 712.976 202.126Q714.961 201.683 716.955 201.283Q718.949 200.882 720.951 200.524Q722.953 200.166 724.962 199.851Q726.971 199.537 728.987 199.265Q731.002 198.993 733.023 198.764Q735.044 198.536 737.069 198.35Q739.094 198.165 741.123 198.023Q743.152 197.881 745.183 197.782Q747.215 197.684 749.248 197.629Q751.281 197.574 753.314 197.562Q755.348 197.551 757.381 197.583Q759.415 197.615 761.447 197.69Q763.479 197.766 765.51 197.884Q767.54 198.003 769.567 198.166Q771.594 198.328 773.618 198.534Q775.641 198.74 777.659 198.989Q779.678 199.237 781.69 199.53Q783.703 199.822 785.709 200.157Q787.715 200.492 789.713 200.87Q791.711 201.248 793.701 201.668Q795.691 202.089 797.671 202.552C802.794 203.64 807.776 205.296 812.739 206.953C818.533 208.641 824.689 210.147 830.129 212.796C854.085 223.619 874.995 235.229 893.859 253.908C897.829 258.328 901.875 262.7 905.697 267.249C912.261 275.649 918.229 284.327 924.131 293.2C929.48 303.819 935.009 314.109 939.154 325.288C954.923 367.817 954.092 414.84 939.994 457.69C935.879 470.198 930.457 482.576 923.269 493.62C920.108 498.271 917.24 503.122 914.009 507.724C910.562 512.633 901.935 521.539 900.346 526.476C896.13 531.961 890.4 536.812 885.268 541.431Q882.499 543.939 879.639 546.343Q876.779 548.747 873.832 551.043Q870.885 553.339 867.855 555.524Q864.825 557.709 861.716 559.781Q858.607 561.852 855.423 563.807Q852.239 565.762 848.985 567.597Q845.731 569.432 842.411 571.146Q839.091 572.859 835.71 574.448Q832.329 576.037 828.891 577.5Q825.454 578.963 821.964 580.297Q818.475 581.631 814.938 582.835Q811.401 584.039 807.822 585.111Q804.244 586.183 800.627 587.122Q797.011 588.06 793.363 588.864Q789.714 589.668 786.039 590.336Q782.363 591.004 778.665 591.535C776.113 591.876 773.559 592.1 771.012 592.498C766.127 594.371 743.192 593.3 737.691 591.8C737.305 591.695 736.916 591.601 736.529 591.497C734.889 596.124 736.003 603.709 734.675 606.379C734.69 601.564 734.672 596.788 734.365 591.979C725.286 589.696 715.771 589.295 706.593 586.908Q702.776 585.875 699.002 584.696Q695.228 583.517 691.501 582.193Q687.775 580.87 684.103 579.404Q680.43 577.938 676.817 576.332Q673.204 574.726 669.655 572.982Q666.106 571.238 662.627 569.358Q659.148 567.479 655.744 565.467Q652.34 563.455 649.016 561.314Q645.692 559.173 642.452 556.905Q639.213 554.637 636.063 552.246Q632.914 549.856 629.859 547.346Q626.803 544.835 623.847 542.21Q620.891 539.584 618.037 536.846Q615.184 534.108 612.439 531.263Q609.693 528.417 607.059 525.468Q604.425 522.519 601.906 519.471C593.949 509.724 587.347 499.385 580.991 488.546Q575.906 478.705 572.077 468.311C550.722 411.686 555.773 358.608 580.392 304.025C595.776 277.443 610.294 260.317 633.148 239.747Z"/>
	<path fill="#003E94" d="M748.715 227.236C792.86 226.186 834.849 238.598 868.819 267.387C903.073 296.418 921.464 338.316 925.033 382.534Q925.515 388.522 925.562 394.53Q925.61 400.538 925.223 406.533Q924.837 412.528 924.019 418.48Q923.2 424.432 921.954 430.309C916.079 456.95 900.384 488.459 882.643 509.135C852.293 544.504 808.16 564.368 762.125 567.96Q758.597 568.084 755.071 568.261C711.967 570.1 669.545 550.338 638.318 521.546C630.723 514.544 624.544 506.731 618.471 498.43C597.038 469.142 586.167 438.667 584.784 402.368C583.171 360.03 596.903 316.689 626.004 285.376C660.246 248.53 697.976 229.174 748.715 227.236Z"/>
	<path fill="#FEFEFE" d="M603.547 457.015C603.447 456.806 603.34 456.599 603.247 456.386C586.271 417.461 587.957 372.122 603.314 333.119C618.595 294.308 650.329 263.98 688.299 247.467C730.079 229.298 775.848 231.287 817.644 247.767C843.394 256.315 865.301 274.979 881.796 296.207C884.749 300.007 888.305 304.222 890.55 308.458C895.907 317.809 900.918 327.125 904.765 337.216Q905.861 340.153 906.843 343.131Q907.825 346.109 908.691 349.122Q909.557 352.136 910.305 355.181Q911.053 358.225 911.684 361.297Q912.314 364.368 912.824 367.462Q913.335 370.555 913.726 373.666Q914.116 376.777 914.386 379.901Q914.656 383.025 914.805 386.157Q914.954 389.289 914.981 392.424Q915.009 395.559 914.915 398.693Q914.821 401.827 914.606 404.955Q914.391 408.083 914.055 411.201Q913.718 414.318 913.262 417.42Q912.805 420.522 912.229 423.604Q911.653 426.686 910.958 429.743Q910.263 432.801 909.45 435.829C898.538 475.899 871.557 513.823 835.216 534.599Q833.457 535.617 831.673 536.59Q829.889 537.564 828.082 538.493Q826.274 539.421 824.444 540.304Q822.613 541.188 820.762 542.025Q818.91 542.862 817.038 543.652Q815.165 544.443 813.274 545.186Q811.383 545.93 809.473 546.626Q807.564 547.322 805.638 547.97Q803.712 548.618 801.77 549.217Q799.828 549.817 797.872 550.368Q795.916 550.919 793.947 551.42Q791.977 551.922 789.996 552.374Q788.015 552.827 786.023 553.229Q784.031 553.632 782.03 553.985Q780.028 554.338 778.019 554.64Q776.009 554.943 773.992 555.195Q771.976 555.447 769.954 555.649Q767.932 555.851 765.905 556.002Q763.878 556.153 761.849 556.253Q759.819 556.354 757.787 556.403Q755.756 556.453 753.723 556.452Q751.691 556.45 749.659 556.398Q747.628 556.346 745.598 556.243Q743.569 556.141 741.542 555.987Q739.516 555.833 737.494 555.629Q735.472 555.425 733.456 555.17Q731.439 554.916 729.43 554.611Q727.421 554.306 725.42 553.951Q723.419 553.595 721.428 553.19Q719.436 552.785 717.456 552.33Q715.475 551.876 713.506 551.371Q711.537 550.867 709.582 550.314C670.088 539.428 633.81 513 613.455 477.234C609.745 470.715 606.572 463.873 603.547 457.015Z"/>
	<path fill="#004BB7" d="M827.742 443.831C831.223 447.772 833.905 451.85 836.383 456.481C831.337 464.637 820.134 481.032 810.234 483.478C809.034 483.775 807.821 483.669 806.616 483.47C811.183 475.177 824.537 470.617 831.159 460.119C829.905 457.34 828.022 454.825 826.885 452.007C825.582 448.777 826.451 446.813 827.742 443.831Z"/>
	<path fill="#004BB7" d="M850.791 372.342C853.576 373.357 854.961 374.498 856.166 377.262C859.925 385.888 858.092 398.418 857.35 407.617C855.244 410.065 853.575 412.229 850.53 413.524C850.099 412.529 849.942 411.491 849.812 410.42C849.134 404.801 850.087 398.644 849.96 392.953C849.834 387.324 848.499 380.834 849.246 375.321C849.411 374.104 850.067 373.294 850.791 372.342Z"/>
	<path fill="#004BB7" d="M726.739 300.557C727.052 296.713 727.085 292.55 730.261 289.825C735.388 285.426 746.712 285.916 753.03 286.652C757.904 287.22 764.555 288.549 767.683 292.63C769.83 295.431 770.357 299.62 770.757 303.04C764.229 302.685 760.074 293.01 749.4 291.748C742.286 290.907 737.529 292.331 732.981 297.794C731.929 299.057 730.723 300.754 729.397 301.698C728.535 302.311 728.278 302.281 727.302 302.143L726.739 300.557Z"/>
	<path fill="#004BB7" d="M667.323 446.085C673.266 459.237 686.483 468.505 697.57 477.12C694.942 479.347 691.469 482.719 687.8 482.622C682.111 482.471 675.161 475.762 671.361 471.947C667.134 467.703 661.562 461.963 661.755 455.539C661.886 451.149 664.264 448.821 667.323 446.085Z"/>
	<path fill="#004BB7" d="M653.296 414.526C649.434 414.576 644.745 413.996 641.937 411.094C637.009 406 637.043 397.042 637.295 390.407C637.519 384.482 638.432 377.694 643.173 373.572C646.561 370.625 650.058 370.415 654.326 370.595C651.842 386.22 650.991 398.759 653.296 414.526Z"/>
	<path fill="#004BB7" d="M666.181 343.941C663.456 341.169 659.591 337.313 659.452 333.209C659.265 327.694 664.468 321.836 668.013 318.003C672.377 313.285 679.52 306.37 686.363 306.358C691.084 306.35 695.006 310.783 698.028 313.927C686.017 323.1 674.053 330.407 666.181 343.941Z"/>
	<path fill="#F13324" d="M817.644 247.767C843.394 256.315 865.301 274.979 881.796 296.207C884.749 300.007 888.305 304.222 890.55 308.458C880.465 311.349 868.065 314.329 857.631 311.56C853.656 310.505 850.054 308.273 848.117 304.542C844.851 298.247 847.509 290.743 849.419 284.469C847.259 283.163 845.209 281.664 843.135 280.227C838.046 284.939 833.615 289.427 826.838 291.594C814.109 288.487 805.448 275.834 797.655 266.198C796.763 264.327 796.019 262.381 795.86 260.293C795.655 257.587 796.405 255.069 798.278 253.08C803.138 247.921 811.111 247.962 817.644 247.767Z"/>
	<path fill="#DDE2ED" d="M603.547 457.015C603.447 456.806 603.34 456.599 603.247 456.386C586.271 417.461 587.957 372.122 603.314 333.119C618.595 294.308 650.329 263.98 688.299 247.467C730.079 229.298 775.848 231.287 817.644 247.767C811.111 247.962 803.138 247.921 798.278 253.08C796.405 255.069 795.655 257.587 795.86 260.293C796.019 262.381 796.763 264.327 797.655 266.198C755.59 255.952 719.919 257.329 682.108 280.403C652.562 298.435 633.063 326.688 625.108 360.285Q624.704 361.924 624.341 363.572Q623.978 365.22 623.656 366.877Q623.335 368.533 623.055 370.197Q622.775 371.862 622.536 373.532Q622.298 375.203 622.101 376.879Q621.905 378.555 621.75 380.236Q621.596 381.916 621.483 383.6Q621.371 385.284 621.3 386.97Q621.23 388.656 621.202 390.344Q621.174 392.031 621.188 393.719Q621.201 395.406 621.258 397.093Q621.314 398.78 621.412 400.465Q621.51 402.149 621.651 403.831Q621.791 405.513 621.974 407.191Q622.156 408.868 622.38 410.541Q622.605 412.214 622.871 413.88Q623.137 415.547 623.444 417.206Q623.752 418.865 624.101 420.517Q624.45 422.168 624.84 423.81Q625.23 425.451 625.661 427.083Q626.092 428.715 626.564 430.335Q627.036 431.955 627.548 433.563Q628.06 435.171 628.612 436.766Q629.165 438.361 629.756 439.941Q630.348 441.522 630.979 443.087Q631.611 444.652 632.281 446.201Q632.951 447.75 633.659 449.281Q634.368 450.813 635.115 452.327Q635.861 453.84 636.646 455.334Q637.43 456.829 638.251 458.303Q639.073 459.777 639.931 461.23Q640.789 462.684 641.683 464.115C645.221 469.841 649.111 475.865 653.708 480.771L653.151 480.361Q650.332 478.211 647.808 475.721Q645.284 473.231 643.097 470.441C636.699 462.435 628.41 446.622 616.069 448.495C610.565 449.331 607.23 453.324 603.547 457.015Z"/>
	<path fill="#0B73E8" d="M726.739 300.557L727.302 302.143C728.278 302.281 728.535 302.311 729.397 301.698C730.723 300.754 731.929 299.057 732.981 297.794C737.529 292.331 742.286 290.907 749.4 291.748C760.074 293.01 764.229 302.685 770.757 303.04C780.054 307.357 787.188 308.416 796.26 314.561C798.284 311.984 801.294 307.885 804.775 307.474C809.157 306.956 813.711 311.282 816.763 313.973C822.776 319.276 829.242 325.01 832.438 332.516C831.053 337.473 829.817 340.492 825.732 343.826C830.841 353.189 835.256 362.247 838.917 372.291C842.87 372.423 846.843 372.65 850.791 372.342C850.067 373.294 849.411 374.104 849.246 375.321C848.499 380.834 849.834 387.324 849.96 392.953C850.087 398.644 849.134 404.801 849.812 410.42C849.942 411.491 850.099 412.529 850.53 413.524C846.771 413.574 843.06 413.869 839.316 414.198C836.811 424.892 833.577 434.441 827.742 443.831C826.451 446.813 825.582 448.777 826.885 452.007C828.022 454.825 829.905 457.34 831.159 460.119C824.537 470.617 811.183 475.177 806.616 483.47Q800.179 480.18 793.686 477.002C789.229 479.544 784.632 481.926 779.78 483.622C775.105 485.258 770.004 486.397 765.627 488.728C765.156 491.522 764.854 495.149 762.94 497.37C759.49 501.371 753.624 502.53 748.593 502.814C742.069 503.181 733.735 503.538 728.638 498.748C725.266 495.58 724.953 492.42 724.892 488.068C717.021 485.215 709.424 482.169 701.853 478.588C700.573 477.983 698.996 476.904 697.57 477.12C686.483 468.505 673.266 459.237 667.323 446.085C666.799 442.1 661.252 435.293 659.382 431.264C657.289 426.755 656.132 418.086 653.296 414.526C650.991 398.759 651.842 386.22 654.326 370.595C656.376 368.704 658.382 359.915 659.689 356.887C661.603 352.456 664.002 348.245 666.181 343.941C674.053 330.407 686.017 323.1 698.028 313.927L698.642 314.011C703.171 311.057 708.189 308.925 713.305 307.218C717.384 305.856 723.067 304.915 726.545 302.428L726.739 300.557Z"/>
	<path fill="#F8921E" d="M741.231 334.663Q742.526 334.554 743.825 334.499Q745.123 334.445 746.423 334.445Q747.723 334.446 749.021 334.501Q750.32 334.557 751.615 334.667Q752.91 334.778 754.199 334.943Q755.488 335.108 756.769 335.328Q758.05 335.547 759.321 335.821Q760.592 336.094 761.849 336.421Q763.107 336.748 764.35 337.128Q765.593 337.508 766.819 337.941Q768.045 338.373 769.251 338.857Q770.457 339.34 771.642 339.875Q772.827 340.409 773.988 340.993Q775.149 341.577 776.285 342.21Q777.42 342.842 778.528 343.523Q779.635 344.203 780.713 344.929C794.354 354.126 803.568 369.283 806.626 385.365C809.445 400.195 806.253 416.886 797.72 429.406C787.105 444.981 771.496 451.905 753.494 455.352C753.17 455.412 752.847 455.476 752.523 455.532C739.041 457.848 722.554 451.909 711.72 444.108Q710.478 443.201 709.282 442.234Q708.086 441.267 706.94 440.242Q705.793 439.217 704.698 438.137Q703.603 437.057 702.563 435.924Q701.523 434.791 700.54 433.608Q699.557 432.426 698.633 431.196Q697.71 429.966 696.848 428.692Q695.986 427.419 695.188 426.104Q694.39 424.789 693.658 423.437Q692.925 422.084 692.261 420.698Q691.596 419.311 691 417.893Q690.405 416.475 689.88 415.029Q689.355 413.584 688.902 412.114Q688.449 410.644 688.069 409.154Q687.689 407.664 687.383 406.157Q687.076 404.649 686.845 403.129C684.524 387.904 688.785 370.847 697.987 358.498C708.55 344.324 724.096 337.188 741.231 334.663Z"/>
	<path fill="#FEFEFE" d="M743.988 376.577C747.678 376.328 751.484 376.928 754.815 378.578C759.559 380.926 762.994 385.237 764.523 390.275Q764.791 391.136 764.972 392.02Q765.153 392.904 765.244 393.802Q765.335 394.7 765.336 395.602Q765.337 396.504 765.248 397.402Q765.158 398.3 764.979 399.184Q764.801 400.069 764.534 400.931Q764.267 401.793 763.916 402.624Q763.564 403.454 763.131 404.246C760.043 409.843 755.167 412.187 749.276 413.804C745.329 414.187 741.791 413.866 738.155 412.141Q737.333 411.746 736.555 411.272Q735.777 410.797 735.05 410.248Q734.323 409.698 733.654 409.079Q732.985 408.459 732.381 407.776Q731.777 407.094 731.245 406.354Q730.712 405.615 730.255 404.826Q729.799 404.037 729.423 403.206Q729.047 402.376 728.756 401.512Q728.599 401.054 728.467 400.588Q728.334 400.122 728.226 399.65Q728.118 399.179 728.034 398.702Q727.95 398.225 727.891 397.744Q727.831 397.264 727.797 396.781Q727.763 396.298 727.754 395.813Q727.744 395.329 727.76 394.845Q727.776 394.361 727.817 393.879Q727.857 393.396 727.923 392.917Q727.988 392.437 728.078 391.961Q728.169 391.485 728.283 391.015Q728.398 390.545 728.537 390.081Q728.676 389.617 728.838 389.161Q729.001 388.705 729.187 388.257Q729.373 387.81 729.581 387.373Q729.79 386.937 730.021 386.511C733.166 380.64 737.926 378.408 743.988 376.577Z"/>
</svg>
