<?xml version="1.0" encoding="utf-8" ?>
<svg xmlns="http://www.w3.org/2000/svg" xmlns:xlink="http://www.w3.org/1999/xlink" width="1024" height="1024">
	<path fill="#FEFEFE" d="M461.922 233.072C465.305 232.875 468.413 233.03 471.535 234.488Q472.202 234.797 472.835 235.171Q473.468 235.546 474.06 235.982Q474.651 236.419 475.196 236.913Q475.741 237.407 476.233 237.953Q476.725 238.499 477.16 239.092Q477.594 239.686 477.967 240.32Q478.339 240.954 478.646 241.622Q478.952 242.29 479.19 242.986Q479.448 243.735 479.629 244.506Q479.809 245.277 479.911 246.062Q480.012 246.847 480.033 247.639Q480.054 248.431 479.995 249.22Q479.935 250.01 479.796 250.79Q479.657 251.569 479.439 252.33Q479.221 253.092 478.927 253.827Q478.633 254.562 478.266 255.264C475.925 259.761 472.156 262.004 467.483 263.524C463.985 263.888 460.924 263.62 457.741 261.991Q457.041 261.626 456.382 261.193Q455.723 260.759 455.11 260.261Q454.498 259.763 453.94 259.206Q453.381 258.649 452.881 258.038Q452.381 257.428 451.946 256.77Q451.51 256.112 451.144 255.413Q450.777 254.714 450.482 253.982Q450.188 253.25 449.969 252.492C448.786 248.403 449.226 243.915 451.403 240.233C453.819 236.146 457.474 234.249 461.922 233.072Z"/>
	<path fill="#04A1FA" d="M127.035 485.709C136.832 485.258 147.339 487.244 154.756 494.094C160.793 499.669 164.033 508.154 164.134 516.29C164.237 524.539 161.069 532.209 155.325 538.096C147.617 545.997 139.15 546.941 128.697 547.122C118.665 547.129 109.739 546.316 101.722 539.648Q101.157 539.185 100.615 538.695Q100.074 538.205 99.5579 537.688Q99.0418 537.171 98.5522 536.629Q98.0626 536.087 97.6007 535.521Q97.1389 534.955 96.706 534.366Q96.273 533.778 95.8701 533.169Q95.4672 532.56 95.0953 531.931Q94.7234 531.302 94.3834 530.656Q94.0434 530.009 93.7363 529.346Q93.4291 528.684 93.1555 528.006Q92.8819 527.329 92.6426 526.639Q92.4032 525.949 92.1988 525.248Q91.9943 524.546 91.8252 523.836Q91.6561 523.125 91.5227 522.407Q91.3894 521.689 91.2922 520.965Q91.195 520.241 91.1342 519.513Q91.0768 518.772 91.056 518.03Q91.0353 517.287 91.0513 516.544Q91.0673 515.802 91.1201 515.061Q91.1728 514.32 91.2621 513.582Q91.3515 512.845 91.4772 512.113Q91.6029 511.38 91.7646 510.655Q91.9264 509.93 92.1238 509.214Q92.3212 508.498 92.5539 507.793Q92.7865 507.087 93.0537 506.394Q93.3209 505.701 93.6221 505.022Q93.9233 504.342 94.2577 503.679Q94.5921 503.016 94.9589 502.37Q95.3257 501.724 95.724 501.097Q96.1223 500.47 96.5511 499.863Q96.98 499.256 97.4383 498.672Q97.8966 498.087 98.3833 497.526C105.909 488.803 116.019 486.516 127.035 485.709Z"/>
	<path fill="#FEFEFE" d="M118.389 498.922C122.732 501.891 126.792 505.238 131.223 508.086C136.175 511.269 141.46 513.899 146.438 517.054C141.547 520.445 136.261 523.203 131.052 526.067C126.702 528.778 122.602 531.742 118.482 534.784L118.478 520.555L124.778 517.03C122.749 515.771 120.591 514.666 118.505 513.501L118.389 498.922Z"/>
	<path fill="#FEFEFE" d="M884.313 399.212C894.592 398.42 905.71 402.507 913.756 408.76C923.663 416.46 930.785 427.988 932.197 440.546Q932.327 441.698 932.401 442.855Q932.474 444.012 932.49 445.171Q932.506 446.33 932.466 447.489Q932.425 448.647 932.327 449.803Q932.23 450.958 932.075 452.107Q931.921 453.256 931.71 454.396Q931.499 455.536 931.233 456.664Q930.966 457.792 930.644 458.906Q930.323 460.02 929.947 461.116Q929.57 462.213 929.141 463.289Q928.711 464.366 928.229 465.42Q927.747 466.475 927.214 467.504Q926.68 468.533 926.097 469.535Q925.513 470.537 924.881 471.509Q924.249 472.481 923.57 473.42Q922.891 474.36 922.167 475.265C913.614 485.912 900.623 491.597 887.253 493.042Q886.117 493.043 884.982 492.994Q883.848 492.946 882.716 492.848Q881.584 492.75 880.458 492.603Q879.332 492.456 878.213 492.26Q877.094 492.064 875.985 491.82Q874.876 491.576 873.778 491.283Q872.681 490.991 871.597 490.651Q870.513 490.311 869.445 489.924Q868.377 489.537 867.327 489.105Q866.277 488.672 865.247 488.194Q864.216 487.716 863.208 487.193Q862.199 486.671 861.215 486.105Q860.23 485.539 859.27 484.931Q858.311 484.322 857.379 483.673Q856.447 483.024 855.545 482.334Q854.642 481.645 853.77 480.917C844.459 473.017 838.689 462.072 837.723 449.886Q837.626 448.759 837.585 447.629Q837.543 446.499 837.558 445.369Q837.573 444.238 837.644 443.109Q837.715 441.981 837.841 440.857Q837.968 439.733 838.15 438.617Q838.333 437.501 838.57 436.396Q838.807 435.29 839.099 434.198Q839.391 433.105 839.737 432.029Q840.082 430.952 840.481 429.894Q840.88 428.835 841.33 427.798Q841.781 426.761 842.282 425.748Q842.784 424.734 843.335 423.747Q843.886 422.759 844.485 421.8Q845.084 420.841 845.73 419.913Q846.376 418.985 847.068 418.09Q847.759 417.195 848.494 416.336C857.599 405.833 870.576 400.177 884.313 399.212Z"/>
	<path fill="#094285" d="M857.352 439.487C858.171 439.488 858.989 439.497 859.803 439.596C862.066 439.871 864.243 441.061 865.552 442.945C866.698 444.595 867.024 446.512 866.634 448.475C866.015 451.592 864.169 453.062 861.643 454.746C860.428 454.677 859.209 454.609 858.001 454.456C855.85 454.184 853.715 452.791 852.479 451.018C851.484 449.592 851.164 447.912 851.546 446.216C852.276 442.975 854.744 441.225 857.352 439.487Z"/>
	<path fill="#094285" d="M882.39 464.007C883.593 463.957 884.831 463.95 886.028 464.1C888.391 464.398 890.738 465.892 892.111 467.826C893.187 469.341 893.63 471.188 893.196 473.01C892.53 475.815 890.487 477.385 888.186 478.875Q886.887 478.952 885.586 478.903C883.202 478.809 880.797 477.903 879.211 476.057C877.898 474.528 877.41 472.543 877.698 470.565C878.145 467.508 880.077 465.816 882.39 464.007Z"/>
	<path fill="#094285" d="M907.758 439.508C909.146 439.466 910.649 439.379 912.022 439.582C913.964 439.871 916.056 441.443 917.23 442.964C918.436 444.527 918.983 446.469 918.6 448.422C918.045 451.25 916.023 452.969 913.776 454.536Q912.683 454.655 911.585 454.716C909.147 454.84 907.073 454.301 905.285 452.543C903.835 451.117 903.146 449.271 903.219 447.246C903.346 443.702 905.222 441.721 907.758 439.508Z"/>
	<path fill="#094285" d="M883.047 413.501C884.153 413.461 885.266 413.411 886.365 413.577C888.798 413.942 891.309 415.446 892.682 417.506Q892.879 417.803 893.044 418.118Q893.21 418.434 893.341 418.765Q893.473 419.095 893.571 419.438Q893.668 419.781 893.729 420.132Q893.79 420.483 893.815 420.838Q893.84 421.193 893.828 421.549Q893.816 421.905 893.768 422.258Q893.72 422.611 893.635 422.957C892.935 425.876 891.014 427.291 888.612 428.852C887.904 429.038 887.224 429.205 886.486 429.198C884.102 429.173 881.379 428.188 879.804 426.349C878.31 424.604 877.847 422.294 878.161 420.054C878.608 416.867 880.588 415.307 883.047 413.501Z"/>
	<path fill="#60C5FC" d="M165.912 319.161C165.246 316.276 164.583 313.399 164.312 310.445C163.468 301.243 165.778 291.313 171.921 284.215C177.892 277.313 185.318 275.397 194.012 274.909L193.705 402.263C190.249 402.162 186.754 401.956 183.302 402.134Q167.67 402.024 152.038 402.096C144.283 402.121 136.146 402.627 128.466 401.41Q125.243 400.881 122.141 399.862Q119.038 398.842 116.13 397.357C105.42 392.009 97.6849 383.032 93.9609 371.649C90.0313 359.639 91.1692 347.139 96.9014 335.9Q97.4134 334.884 97.975 333.895Q98.5367 332.906 99.1465 331.946Q99.7564 330.986 100.413 330.057Q101.07 329.128 101.771 328.233Q102.473 327.338 103.218 326.478Q103.964 325.619 104.75 324.797Q105.537 323.976 106.364 323.194Q107.19 322.413 108.054 321.673Q108.918 320.933 109.818 320.237Q110.718 319.541 111.651 318.891Q112.584 318.24 113.548 317.636Q114.512 317.033 115.504 316.477Q116.497 315.922 117.516 315.416Q118.535 314.911 119.578 314.456Q120.621 314.002 121.685 313.6Q122.748 313.197 123.831 312.848C140.199 307.595 151.354 311.735 165.912 319.161Z"/>
	<path fill="#0014AF" d="M194.012 274.909L193.981 189.551C193.939 176.498 192.161 162.473 194.055 149.559C194.588 145.923 195.999 143.035 198.605 140.418C202.046 136.962 210.76 137.235 215.383 137.3Q279.304 137.831 343.227 137.588L378.069 137.637C384.316 137.637 391.125 137.111 397.288 137.939C400.785 138.409 404.203 139.493 406.773 142.027C409.555 144.771 409.89 147.968 410.284 151.656C411.005 158.412 410.646 165.467 410.674 172.26L410.806 208.05L410.694 337.991C408.754 338.07 406.697 338.019 404.788 338.374L404.843 172.603L200.426 172.412L200.322 503.385Q218.714 503.693 237.107 503.453Q236.914 521.017 237.02 538.581C227.071 538.481 204.803 541.577 197.587 534.748C195.378 532.656 194.256 529.9 193.824 526.929C193.094 521.903 193.403 516.614 193.423 511.549L193.515 488.208L193.597 402.501Q188.448 402.359 183.302 402.134C186.754 401.956 190.249 402.162 193.705 402.263L194.012 274.909Z"/>
	<path fill="#FEFEFE" d="M300.294 149.387C300.893 149.457 301.439 149.539 302.024 149.684C303.969 150.167 305.782 151.248 306.788 153.036Q306.935 153.3 307.053 153.578Q307.17 153.857 307.258 154.146Q307.345 154.435 307.402 154.732Q307.458 155.029 307.482 155.33Q307.506 155.632 307.498 155.934Q307.49 156.236 307.449 156.535Q307.409 156.835 307.337 157.128Q307.265 157.422 307.162 157.706C306.304 160.121 304.535 161.026 302.334 162.061C302.171 162.049 302.008 162.038 301.845 162.024C299.764 161.845 297.25 161.325 295.985 159.451C295.007 158.003 294.827 156.614 295.262 154.958C296.016 152.08 297.895 150.91 300.294 149.387Z"/>
	<path fill="#FEFEFE" d="M733.522 253.486C748.727 235.516 765.994 224.147 790.001 222.27Q791.004 222.194 792.008 222.142Q793.013 222.09 794.018 222.063Q795.023 222.037 796.029 222.035Q797.035 222.033 798.04 222.056Q799.046 222.078 800.05 222.126Q801.055 222.174 802.058 222.247Q803.061 222.319 804.062 222.417Q805.063 222.514 806.062 222.636Q807.06 222.758 808.055 222.905Q809.05 223.052 810.041 223.223Q811.032 223.394 812.019 223.59Q813.005 223.786 813.987 224.006Q814.968 224.226 815.943 224.47Q816.919 224.715 817.889 224.983Q818.858 225.251 819.82 225.544Q820.782 225.836 821.737 226.152Q822.692 226.468 823.639 226.807Q824.586 227.147 825.524 227.509Q826.462 227.872 827.391 228.258Q828.319 228.644 829.238 229.052Q830.157 229.461 831.066 229.892Q831.975 230.324 832.872 230.777Q833.77 231.231 834.656 231.706Q835.542 232.182 836.416 232.68Q837.29 233.177 838.152 233.696Q839.014 234.215 839.862 234.755Q840.71 235.295 841.545 235.856Q842.38 236.416 843.201 236.998Q844.022 237.579 844.828 238.181Q845.634 238.782 846.425 239.403Q847.216 240.024 847.991 240.665Q848.767 241.305 849.526 241.965C865.542 255.877 874.598 274.757 876.013 295.853C877.378 316.222 871.847 335.89 858.244 351.37C847.065 364.092 833.336 370.749 817.511 375.862C817.323 375.739 816.749 375.17 816.665 374.976C816.152 373.786 816.3 370.747 816.155 369.35C815.266 360.805 812.91 352.751 806.638 346.565Q805.891 345.83 805.092 345.151Q804.293 344.473 803.446 343.856Q802.599 343.24 801.709 342.687Q800.818 342.135 799.889 341.65Q798.96 341.165 797.997 340.751Q797.035 340.336 796.044 339.994Q795.054 339.652 794.041 339.384Q793.027 339.117 791.997 338.925C785.962 337.83 779.479 338.323 773.362 338.367L746.966 338.45L643 338.483Q641.454 333.53 640.867 328.375C639.519 315.934 643.128 302.86 651.016 293.096C659.378 282.746 671.595 276.984 684.715 275.757C697.732 274.54 708.27 279.081 718.113 287.253C721.042 274.539 726.43 264.319 733.522 253.486Z"/>
	<path fill="#04A1FA" d="M550.498 338.452Q548.713 336.947 547.002 335.356Q545.292 333.766 543.661 332.095Q542.029 330.424 540.481 328.676Q538.933 326.927 537.471 325.106Q536.009 323.285 534.637 321.395Q533.265 319.505 531.987 317.551Q530.708 315.597 529.526 313.583Q528.343 311.569 527.26 309.5C513.192 283.031 509.681 252.97 518.522 224.212C527.38 195.397 546.122 171.184 572.962 157.031Q574.134 156.414 575.32 155.826Q576.507 155.239 577.707 154.681Q578.908 154.122 580.122 153.594Q581.336 153.066 582.563 152.567Q583.79 152.069 585.029 151.601Q586.267 151.133 587.517 150.696Q588.767 150.259 590.027 149.853Q591.288 149.447 592.558 149.072Q593.828 148.698 595.106 148.354Q596.385 148.011 597.672 147.699Q598.959 147.388 600.253 147.108Q601.547 146.828 602.848 146.58Q604.149 146.333 605.455 146.117Q606.762 145.902 608.073 145.719Q609.385 145.535 610.7 145.385Q612.016 145.234 613.334 145.116Q614.653 144.998 615.974 144.912Q617.296 144.827 618.619 144.774Q619.942 144.721 621.266 144.7Q622.59 144.68 623.914 144.693Q625.238 144.705 626.561 144.75Q627.885 144.796 629.206 144.873Q630.528 144.951 631.848 145.062Q633.167 145.172 634.484 145.315Q635.8 145.458 637.112 145.634Q638.425 145.809 639.732 146.017Q641.04 146.225 642.342 146.465Q643.644 146.705 644.94 146.977Q646.236 147.25 647.525 147.554Q648.813 147.858 650.094 148.194Q651.375 148.53 652.647 148.897Q653.919 149.264 655.182 149.663C692.15 161.292 720.81 190.269 729.472 228.401C730.302 232.052 732.376 251.598 733.119 252.854C733.246 253.069 733.388 253.275 733.522 253.486C726.43 264.319 721.042 274.539 718.113 287.253C708.27 279.081 697.732 274.54 684.715 275.757C671.595 276.984 659.378 282.746 651.016 293.096C643.128 302.86 639.519 315.934 640.867 328.375Q641.454 333.53 643 338.483C627.274 339.222 611.231 338.622 595.467 338.627C580.574 338.631 565.354 339.262 550.498 338.452Z"/>
	<path fill="#FEFEFE" d="M618.512 222.075C623.091 221.838 627.574 222.2 631.819 224.091Q632.324 224.314 632.817 224.562Q633.309 224.811 633.788 225.084Q634.268 225.358 634.732 225.657Q635.196 225.955 635.644 226.277Q636.092 226.599 636.523 226.945Q636.953 227.29 637.365 227.657Q637.778 228.024 638.17 228.412Q638.562 228.799 638.934 229.207Q639.306 229.615 639.656 230.042Q640.006 230.468 640.333 230.913Q640.661 231.357 640.964 231.818Q641.268 232.278 641.548 232.754Q641.827 233.23 642.081 233.72Q642.335 234.21 642.564 234.712Q642.792 235.214 642.994 235.728Q643.196 236.242 643.371 236.765C645.292 242.346 645.088 248.641 642.344 253.915C639.171 260.014 633.212 263.352 626.897 265.38C621.415 265.858 616.62 265.907 611.614 263.178Q611.133 262.916 610.665 262.631Q610.198 262.345 609.745 262.036Q609.293 261.727 608.857 261.395Q608.421 261.064 608.002 260.711Q607.583 260.357 607.182 259.984Q606.782 259.61 606.401 259.216Q606.02 258.822 605.659 258.41Q605.298 257.997 604.959 257.567Q604.62 257.137 604.303 256.69Q603.986 256.243 603.692 255.781Q603.397 255.319 603.127 254.842Q602.857 254.366 602.611 253.876Q602.365 253.386 602.144 252.885Q601.924 252.383 601.728 251.871Q601.533 251.359 601.364 250.838Q601.195 250.317 601.053 249.788C599.464 243.931 600.456 237.215 603.591 232.028C607.013 226.368 612.267 223.561 618.512 222.075Z"/>
	<path fill="#04A1FA" d="M620.11 235.507C621.34 235.559 622.597 235.597 623.819 235.762C626.323 236.101 628.721 237.63 630.135 239.717C631.369 241.539 631.64 243.697 631.074 245.805C630.184 249.12 627.727 250.796 624.913 252.432C623.432 252.597 621.702 252.481 620.271 252.06Q619.829 251.934 619.403 251.762Q618.976 251.59 618.571 251.374Q618.165 251.158 617.785 250.9Q617.404 250.642 617.053 250.346Q616.701 250.049 616.383 249.717Q616.065 249.385 615.784 249.022Q615.503 248.658 615.262 248.267Q615.021 247.876 614.822 247.461C613.815 245.358 613.76 242.96 614.564 240.782C615.587 238.012 617.545 236.722 620.11 235.507Z"/>
	<path fill="#04A1FA" d="M200.426 172.412L404.843 172.603L404.788 338.374C404.505 338.425 404.223 338.48 403.94 338.527C400.336 339.129 396.035 338.678 392.367 338.661L369.987 338.603L296.548 338.79C286.311 338.737 273.688 337.109 263.88 340.131C256.407 342.434 249.713 347.721 245.039 353.909C241.151 359.058 239.133 364.446 238.112 370.783C235.828 384.955 237.044 407.058 237.036 421.874C237.021 449.045 236.532 476.29 237.107 503.453Q218.714 503.693 200.322 503.385L200.426 172.412Z"/>
	<path fill="#FEFEFE" d="M228.31 264.533C239.809 264.447 255.647 262.989 266.727 264.857C267.685 266.04 267.427 266.522 267.386 268.007C255.165 268.21 242.204 269.318 230.073 267.851C228.807 266.924 228.786 266 228.31 264.533Z"/>
	<path fill="#FEFEFE" d="M238.036 283.745C245.787 283.682 260.458 282.444 267.664 284.767C268.147 285.92 268.135 285.841 267.689 287.011C265.898 288.198 260.648 287.569 258.412 287.537C250.762 287.927 235.807 288.865 228.792 286.592L228.411 285.776L228.898 284.707C231.473 283.344 235.163 283.784 238.036 283.745Z"/>
	<path fill="#FEFEFE" d="M228.759 303.725C235.979 303.264 262.248 302.035 267.414 304.064C268.125 305.303 267.919 306.106 267.887 307.515C262.051 307.528 232.123 308.559 229.026 306.768C228.437 305.579 228.53 305.014 228.759 303.725Z"/>
	<path fill="#FEFEFE" d="M277.839 264.501L336.31 264.482C346.265 264.426 358.637 263.199 368.345 264.816C369.129 266.05 368.938 266.838 368.948 268.279L310.518 268.28C300.221 268.275 289.604 268.716 279.345 267.873C278.263 266.895 278.229 265.872 277.839 264.501Z"/>
	<path fill="#FEFEFE" d="M277.506 303.755C294.237 303.145 311.028 303.717 327.766 303.639C340.844 303.577 354.997 302.231 367.953 304.129C368.837 305.099 368.655 306.237 368.775 307.517L312.205 307.525C303.935 307.572 285.969 308.889 278.558 307.075C277.639 306.034 277.638 305.07 277.506 303.755Z"/>
	<path fill="#FEFEFE" d="M283.478 245.237C293.182 245.171 362.344 243.971 366.258 245.387C367.467 245.824 368.004 246.168 368.517 247.332L367.759 248.391C365.839 249.396 363.871 249.091 361.771 249.004C350.759 249.044 282.58 250.187 277.812 248.291C276.862 247.913 276.889 247.917 276.459 246.932L277.03 246.121C278.76 245.025 281.466 245.298 283.478 245.237Z"/>
	<path fill="#FEFEFE" d="M278.017 284.044C295.326 283.75 312.667 284.048 329.981 283.968C338.758 283.928 360.729 282.704 367.904 284.58C368.702 285.764 368.602 286.577 368.715 287.983L311.997 288.019C301.085 288.06 289.872 288.887 279.017 287.773C277.925 286.618 278.151 285.597 278.017 284.044Z"/>
	<path fill="#FEFEFE" d="M246.004 204.498L257.615 204.507L257.527 217.006L270.023 216.996L269.888 228.504L257.479 228.496L257.491 240.858C253.866 241.49 249.732 241.06 246.039 240.996L245.999 229.014L234.53 228.823L234.482 216.773L246.032 216.724L246.004 204.498Z"/>
	<path fill="#FEFEFE" d="M410.694 337.991C439.474 337.599 468.286 337.844 497.07 337.864C514.705 337.877 532.943 337.007 550.498 338.452C565.354 339.262 580.574 338.631 595.467 338.627C611.231 338.622 627.274 339.222 643 338.483L746.966 338.45L773.362 338.367C779.479 338.323 785.962 337.83 791.997 338.925Q793.027 339.117 794.041 339.384Q795.054 339.652 796.044 339.994Q797.035 340.336 797.997 340.751Q798.96 341.165 799.889 341.65Q800.818 342.135 801.709 342.687Q802.599 343.24 803.446 343.856Q804.293 344.473 805.092 345.151Q805.891 345.83 806.638 346.565C812.91 352.751 815.266 360.805 816.155 369.35C816.3 370.747 816.152 373.786 816.665 374.976C816.749 375.17 817.323 375.739 817.511 375.862C816.598 376.903 816.612 377.136 816.543 378.563C816.17 386.27 816.593 394.238 816.595 401.975L816.607 452.094L816.628 507.647C816.633 518.091 816.342 528.623 816.809 539.055C804.76 537.602 793.052 539.269 781.042 538.459Q761.289 538.627 741.537 538.435C732.649 537.799 718.206 536.306 711.146 542.599C707.603 545.756 706.374 549.691 705.207 554.1C704.621 564.573 704.988 575.229 704.989 585.723L704.969 646.327C660.116 645.395 615.202 646.198 570.344 646.323L294.379 646.498C294.5 638.078 295.118 629.424 294.556 621.031C294.161 615.142 292.946 608.535 288.124 604.593C284.203 601.387 278.376 600.867 273.505 601.482C269.029 602.617 243.42 602.018 237.644 601.63C237.173 596.252 237.467 590.622 237.385 585.212C237.152 569.671 237.397 554.115 237.02 538.581Q236.915 521.016 237.107 503.453C236.532 476.29 237.021 449.045 237.036 421.874C237.044 407.058 235.828 384.955 238.112 370.783C239.133 364.446 241.151 359.058 245.039 353.909C249.713 347.721 256.407 342.434 263.88 340.131C273.688 337.109 286.311 338.737 296.548 338.79L369.987 338.603L392.367 338.661C396.035 338.678 400.336 339.129 403.94 338.527C404.223 338.48 404.505 338.425 404.788 338.374C406.697 338.019 408.754 338.07 410.694 337.991Z"/>
	<path fill="#0014AF" d="M645.35 599.944C646.311 599.952 647.306 599.94 648.257 600.079C649.746 600.296 651.315 601.364 652.192 602.577C653.015 603.714 653.364 605.043 653.127 606.444C652.707 608.938 651.055 610.238 649.105 611.628C647.035 611.601 644.924 611.168 643.315 609.772C642.278 608.871 641.688 607.666 641.645 606.284C641.557 603.445 643.427 601.736 645.35 599.944Z"/>
	<path fill="#0014AF" d="M645.078 576.419C647.331 576.549 649.967 576.928 651.465 578.841C652.434 580.077 652.841 581.38 652.617 582.952C652.247 585.559 650.567 586.964 648.609 588.516C648.386 588.527 648.163 588.55 647.94 588.548C646.171 588.535 644.31 587.984 643.04 586.701C641.891 585.54 641.415 584.034 641.519 582.42C641.697 579.636 643.079 578.195 645.078 576.419Z"/>
	<path fill="#0014AF" d="M644.548 555.483L645.065 555.459C647.693 555.367 650.05 555.69 651.984 557.66C653.005 558.698 653.586 559.992 653.552 561.47C653.491 564.066 652.009 565.602 650.272 567.345Q649.137 567.658 647.971 567.821C646.162 568.074 644.358 567.706 642.974 566.435C641.952 565.497 641.434 564.172 641.367 562.808C641.216 559.708 642.638 557.755 644.548 555.483Z"/>
	<path fill="#04A1FA" d="M312.016 434.661Q343.384 468.508 376.211 500.942C381.161 505.908 385.618 511.535 390.634 516.348C380.452 529.01 368.632 539.543 357.252 551.056Q334.018 574.69 311.569 599.071C310.539 581.906 311.488 564.15 311.492 546.928L311.57 443.16C311.869 440.311 311.986 437.524 312.016 434.661Z"/>
	<path fill="#0014AF" d="M421.026 508.53Q446.467 535.034 472.444 561.012C484.689 573.352 497.698 585.722 508.925 598.983C443.159 598.978 377.327 598.326 311.569 599.071Q334.018 574.69 357.252 551.056C368.632 539.543 380.452 529.01 390.634 516.348C395.775 520.905 400.579 525.853 405.45 530.696Q413.023 519.462 421.026 508.53Z"/>
	<path fill="#60C5FC" d="M311.502 434.009C332.088 434.345 352.648 433.996 373.234 434.009Q445.604 434.548 517.974 434.006L517.595 599.21C514.698 599.225 511.808 599.309 508.925 598.983C497.698 585.722 484.689 573.352 472.444 561.012Q446.467 535.034 421.026 508.53Q413.023 519.462 405.45 530.696C400.579 525.853 395.775 520.905 390.634 516.348C385.618 511.535 381.161 505.908 376.211 500.942Q343.384 468.508 312.016 434.661C311.986 437.524 311.869 440.311 311.57 443.16Q311.461 438.585 311.502 434.009Z"/>
	<path fill="#04A1FA" d="M705.207 554.1C691.977 553.117 678.06 554.188 664.782 554.286L593.559 554.278C584.525 554.293 575.079 555.087 566.103 554.452C564.112 554.311 561.73 554.064 560.013 552.945C558.605 552.028 557.389 550.389 557.037 548.74C555.119 539.762 556.337 529.662 556.392 520.503L556.312 482.99L556.354 436.784C556.309 428.413 555.756 419.883 556.257 411.528C556.437 408.532 556.905 405.638 558.498 403.058C559.621 402.144 561.023 402.1 562.412 401.933C570.61 400.943 579.276 401.496 587.528 401.495L633.225 401.5L700.398 401.509C711.276 401.502 722.244 400.918 733.106 401.444C735.104 401.541 737.558 401.791 739.09 403.251C741.069 405.138 741.198 408.456 741.412 411.06C742.494 424.252 741.629 437.695 741.564 450.924C741.422 480.065 740.867 509.307 741.537 538.435C732.649 537.799 718.206 536.306 711.146 542.599C707.603 545.756 706.374 549.691 705.207 554.1Z"/>
	<path fill="#FEFEFE" d="M646.086 457.556C649.536 457.258 652.808 457.454 656.031 458.843Q656.784 459.165 657.5 459.561Q658.216 459.958 658.888 460.426Q659.56 460.893 660.181 461.427Q660.802 461.96 661.365 462.554Q661.929 463.148 662.429 463.796Q662.929 464.445 663.36 465.14Q663.792 465.836 664.15 466.572Q664.508 467.308 664.79 468.077Q664.947 468.487 665.083 468.904Q665.218 469.321 665.332 469.745Q665.446 470.169 665.537 470.598Q665.629 471.027 665.698 471.46Q665.768 471.893 665.814 472.329Q665.861 472.766 665.885 473.204Q665.909 473.642 665.91 474.081Q665.911 474.519 665.89 474.957Q665.868 475.396 665.824 475.832Q665.78 476.269 665.713 476.702Q665.646 477.136 665.557 477.565Q665.468 477.995 665.356 478.419Q665.245 478.844 665.112 479.262Q664.979 479.68 664.824 480.09Q664.669 480.501 664.493 480.903Q664.318 481.305 664.121 481.697C661.532 486.883 657.395 489.355 652.157 491.227Q651.439 491.381 650.711 491.473Q649.983 491.564 649.249 491.591Q648.516 491.618 647.783 491.581Q647.05 491.544 646.323 491.444Q645.596 491.343 644.88 491.179Q644.165 491.015 643.466 490.79Q642.768 490.564 642.092 490.278Q641.416 489.993 640.767 489.649C636.622 487.423 633.705 483.396 632.517 478.881C631.298 474.25 631.882 469.218 634.399 465.116C637.179 460.584 641.158 458.779 646.086 457.556Z"/>
	<path fill="#094285" d="M410.694 337.991C439.474 337.599 468.286 337.844 497.07 337.864C514.705 337.877 532.943 337.007 550.498 338.452C565.354 339.262 580.574 338.631 595.467 338.627C611.231 338.622 627.274 339.222 643 338.483L746.966 338.45L773.362 338.367C779.479 338.323 785.962 337.83 791.997 338.925Q793.027 339.117 794.041 339.384Q795.054 339.652 796.044 339.994Q797.035 340.336 797.997 340.751Q798.96 341.165 799.889 341.65Q800.818 342.135 801.709 342.687Q802.599 343.24 803.446 343.856Q804.293 344.473 805.092 345.151Q805.891 345.83 806.638 346.565C812.91 352.751 815.266 360.805 816.155 369.35C816.3 370.747 816.152 373.786 816.665 374.976C816.749 375.17 817.323 375.739 817.511 375.862C816.598 376.903 816.612 377.136 816.543 378.563C816.17 386.27 816.593 394.238 816.595 401.975L816.607 452.094L816.628 507.647C816.633 518.091 816.342 528.623 816.809 539.055C804.76 537.602 793.052 539.269 781.042 538.459L781.093 371.987L412.948 371.488L317.717 371.501L291.253 371.46C285.475 371.454 279.198 371.022 273.502 372.074Q273.14 408.751 273.362 445.43L273.505 601.482C269.029 602.617 243.42 602.018 237.644 601.63C237.173 596.252 237.467 590.622 237.385 585.212C237.152 569.671 237.397 554.115 237.02 538.581Q236.915 521.016 237.107 503.453C236.532 476.29 237.021 449.045 237.036 421.874C237.044 407.058 235.828 384.955 238.112 370.783C239.133 364.446 241.151 359.058 245.039 353.909C249.713 347.721 256.407 342.434 263.88 340.131C273.688 337.109 286.311 338.737 296.548 338.79L369.987 338.603L392.367 338.661C396.035 338.678 400.336 339.129 403.94 338.527C404.223 338.48 404.505 338.425 404.788 338.374C406.697 338.019 408.754 338.07 410.694 337.991Z"/>
	<defs>
		<linearGradient id="gradient_0" gradientUnits="userSpaceOnUse" x1="760.41467" y1="1089.7494" x2="161.1055" y2="582.5611">
			<stop offset="0" stop-color="#001A72"/>
			<stop offset="1" stop-color="#000BB5"/>
		</linearGradient>
	</defs>
	<path fill="url(#gradient_0)" d="M705.207 554.1C706.374 549.691 707.603 545.756 711.146 542.599C718.206 536.306 732.649 537.799 741.537 538.435Q761.289 538.627 781.042 538.459C793.052 539.269 804.76 537.602 816.809 539.055C834.298 537.598 852.515 538.661 870.099 538.652C881.156 538.646 892.488 537.533 903.49 538.64C907.25 539.018 912.457 539.771 915.45 542.188C920.05 545.901 920.448 552.173 920.796 557.597C921.35 566.238 920.704 574.928 920.601 583.58C920.438 597.239 920.546 610.909 920.55 624.569L920.498 794.848L920.405 846.289C920.367 856.972 919.98 867.727 920.604 878.394Q922.537 878.08 924.484 877.86C928.436 877.436 935.13 876.868 938.362 879.453C938.552 880.147 938.789 880.435 938.489 881.138C938.118 882.009 937.171 883.171 936.262 883.461C928.618 885.898 907.302 884.439 898.366 884.391L856.279 884.311L681.641 884.055L288.284 884.39L179.99 884.585C152.363 884.753 124.664 885.36 97.043 884.49C95.1161 884.43 92.4457 884.527 90.7692 883.44C89.4043 882.555 88.6891 881.818 88.4098 880.217C88.6231 879.813 88.6985 879.597 89.0925 879.274C90.9452 877.755 94.2972 877.321 96.6006 877.096C101.418 876.625 106.498 877.035 111.348 877.048L141.079 877.104C138.335 873.598 136.282 870.212 135.724 865.703C134.475 855.601 135.421 844.39 135.454 834.149L135.475 774.986L135.522 672.634C135.524 655.172 134.773 637.48 135.583 620.051C135.835 614.627 136.814 609.187 141.134 605.441C143.352 603.517 145.901 602.437 148.793 602.025C160.765 600.322 175.173 601.471 187.378 601.462C204.001 601.449 221.092 600.617 237.644 601.63C243.42 602.018 269.029 602.617 273.505 601.482C278.376 600.867 284.203 601.387 288.124 604.593C292.946 608.535 294.161 615.142 294.556 621.031C295.118 629.424 294.5 638.078 294.379 646.498L570.344 646.323C615.202 646.198 660.116 645.395 704.969 646.327L704.989 585.723C704.988 575.229 704.621 564.573 705.207 554.1ZM311.378 730.675C306.386 730.582 299.078 729.565 294.346 730.883Q295.156 775.806 295.051 820.736C295.068 834.98 296.311 853.208 294.335 866.959C293.815 870.577 292.103 874.235 290.39 877.45L398.255 877.516C399.8 868.687 402.539 860.999 409.467 854.936C422.324 843.683 442.197 845.574 458.043 846.666C457.408 814.825 457.897 782.839 457.985 750.986C458.286 743.198 457.994 735.296 457.976 727.495L405.475 727.139C405.291 708.891 405.578 690.645 405.494 672.397C402.549 668.816 400.064 666.784 395.317 666.313C382.015 664.993 366.967 665.994 353.505 665.971C344.606 665.956 330.71 665.022 322.224 666.131C319.757 666.454 317.104 667.218 315.133 668.797C312.407 670.982 311.968 674.714 311.718 677.991C310.43 694.873 312.856 714.186 311.378 730.675ZM727.471 706.981Q721.356 707.121 715.239 707.161C698.207 707.759 681.044 707.571 664.001 707.377C653.613 707.258 643.14 706.72 632.768 707.496C629.424 710.717 627.346 713.675 627.184 718.538C627.081 721.644 627.322 724.828 627.454 727.935L626.724 727.032C618.517 725.448 604.527 726.372 596 727.01L595.987 751.044L596.116 846.536C612.162 845.708 631.309 843.798 644.208 855.444C650.77 861.369 653.854 868.736 654.657 877.418C668.04 877.187 691.487 876.215 703.94 878.189C704.935 864.588 704.561 850.826 704.577 837.194Q704.557 806.126 704.867 775.06C712.36 775.034 719.654 775.383 727.141 774.804C730.597 774.075 734.24 775.495 737.252 772.968C738.851 771.625 739.023 768.263 739.255 766.312C740.047 759.671 741.043 712.862 738.47 709.841C736.154 707.121 730.787 707.153 727.471 706.981Z"/>
	<path fill="#FEFEFE" d="M208.946 613.731C214.173 613.637 228.057 612.334 231.905 615.789C232.088 617.204 231.866 617.203 231.021 618.385C228.996 619.33 226.338 619.23 224.123 619.389C218.92 619.725 205.519 620.43 201.613 617.094C201.317 615.807 201.325 615.902 202.011 614.768C204.06 613.59 206.634 613.811 208.946 613.731Z"/>
	<path fill="#FEFEFE" d="M215.222 849.524C216.458 849.469 217.732 849.396 218.958 849.591C222.193 850.103 225.425 851.989 227.265 854.718C228.915 857.166 229.534 860.321 228.793 863.193C227.627 867.711 224.609 869.806 220.792 871.961C218.833 871.989 216.881 872.02 214.967 871.536C211.961 870.777 209.197 868.763 207.694 866.036Q207.429 865.554 207.215 865.047Q207.001 864.54 206.841 864.013Q206.682 863.487 206.577 862.946Q206.473 862.406 206.426 861.858Q206.379 861.31 206.389 860.759Q206.399 860.209 206.466 859.663Q206.533 859.117 206.657 858.581Q206.78 858.044 206.959 857.524C208.419 853.306 211.453 851.402 215.222 849.524Z"/>
	<path fill="#FEFEFE" d="M596.116 846.536C612.162 845.708 631.309 843.798 644.208 855.444C650.77 861.369 653.854 868.736 654.657 877.418C642.742 878.33 630.494 877.803 618.534 877.794L557.439 877.789L459.88 877.792Q429.066 877.986 398.255 877.516C399.8 868.687 402.539 860.999 409.467 854.936C422.324 843.683 442.197 845.574 458.043 846.666C468.157 848.083 481.668 846.989 492.126 846.97C511.439 846.934 530.781 847.243 550.09 846.945C565.548 846.706 580.612 845.572 596.116 846.536Z"/>
	<path fill="#A4A9AC" d="M457.985 750.986L595.987 751.044L596.116 846.536C580.612 845.572 565.548 846.706 550.09 846.945C530.781 847.243 511.439 846.934 492.126 846.97C481.668 846.989 468.157 848.083 458.043 846.666C457.408 814.825 457.897 782.839 457.985 750.986Z"/>
	<path fill="#60C5FC" d="M727.471 706.981C730.787 707.153 736.154 707.121 738.47 709.841C741.043 712.862 740.047 759.671 739.255 766.312C739.023 768.263 738.851 771.625 737.252 772.968C734.24 775.495 730.597 774.075 727.141 774.804C719.654 775.383 712.36 775.034 704.867 775.06L658.269 775.079C650.755 775.103 641.96 776.006 634.571 774.766C632.955 774.495 631.613 773.807 630.484 772.603C625.035 766.791 627.353 736.943 627.454 727.935C627.322 724.828 627.081 721.644 627.184 718.538C627.346 713.675 629.424 710.717 632.768 707.496C643.14 706.72 653.613 707.258 664.001 707.377C681.044 707.571 698.207 707.759 715.239 707.161Q721.356 707.121 727.471 706.981Z"/>
	<path fill="#FEFEFE" d="M683.267 723.019C685.05 723.315 686.765 723.601 688.104 724.914C690.932 727.687 690.063 733.135 690.003 736.706C693.988 736.646 698.609 736.216 701.926 738.882C702.922 739.683 703.688 740.819 703.695 742.141C703.701 743.286 703.125 744.365 702.341 745.165C699.027 748.548 693.783 748.067 689.476 748.028C689.612 751.123 690.449 756.218 688.859 758.969C687.711 760.956 686.374 761.42 684.224 761.917C682.744 761.576 681.295 760.993 680.352 759.739C678.035 756.656 679.053 751.512 679.379 747.948Q678.446 748.03 677.513 748.1C673.836 748.375 669.723 748.573 666.817 745.844C665.803 744.893 665.011 743.481 665.167 742.05C665.29 740.929 666 739.835 666.818 739.083C670.174 735.994 674.854 736.689 678.997 736.993C678.841 734.139 678.407 730.867 679.088 728.075C679.71 725.522 681.129 724.376 683.267 723.019Z"/>
	<path fill="#0014AF" d="M311.378 730.675C312.856 714.186 310.43 694.873 311.718 677.991C311.968 674.714 312.407 670.982 315.133 668.797C317.104 667.218 319.757 666.454 322.224 666.131C330.71 665.022 344.606 665.956 353.505 665.971C366.967 665.994 382.015 664.993 395.317 666.313C400.064 666.784 402.549 668.816 405.494 672.397C405.578 690.645 405.291 708.891 405.475 727.139Q405.789 742.578 405.926 758.02C406.029 767.138 406.553 776.587 405.018 785.606C401.966 789.091 399.218 791.039 394.498 791.458C389.353 791.914 383.988 791.626 378.813 791.616L350.901 791.581C340.673 791.596 329.942 792.688 319.78 791.893C317.782 791.737 315.86 791.39 314.275 790.079C311.678 787.93 311.585 783.563 311.414 780.407C310.998 772.728 311.284 764.911 311.281 757.218C311.278 748.381 311.051 739.505 311.378 730.675Z"/>
	<path fill="#04A1FA" d="M317.303 701.112C317.069 695.333 315.243 682.59 319.197 678.092C321.195 675.82 324.595 675.429 327.434 675.365C332.362 675.252 337.526 675.638 342.425 676.141L346.215 679.971L371.432 680.263L374.644 676.565C380.057 676.263 391.739 674.344 396.435 677.258C399.15 688.467 397.538 705.544 397.538 717.5L397.904 773.511L317.424 773.5C317.376 755.113 318.101 736.427 317.38 718.085C316.987 712.52 317.3 706.701 317.303 701.112Z"/>
	<path fill="#FEFEFE" d="M349.323 699.68C353.344 699.416 368.526 698.335 371.212 700.606L370.858 701.428C366.632 701.648 352.185 703.197 349.254 700.769L349.323 699.68Z"/>
	<path fill="#FEFEFE" d="M335.431 702.459L335.696 700.65L336.255 700.581C337.405 703.095 337.475 705.731 337.523 708.453C337.661 716.215 336.578 723.982 336.259 731.733C336.014 737.675 336.866 750.096 335.682 754.773L335.058 754.505C333.43 750.15 334.363 731.062 335.117 726.093C336.734 721.842 336.103 707.42 335.431 702.459Z"/>
	<path fill="#60C5FC" d="M317.303 701.112C321.65 700.659 325.71 700.258 330.038 701.084C331.85 701.43 333.632 702.195 335.431 702.459C336.103 707.42 336.734 721.842 335.117 726.093C323.674 724.9 326.243 722.517 317.809 718.291C317.667 718.22 317.523 718.154 317.38 718.085C316.987 712.52 317.3 706.701 317.303 701.112Z"/>
	<path fill="#FEFEFE" d="M340.59 735.741C352.4 735.426 364.259 735.563 376.075 735.501C376.075 742.822 376.243 750.196 375.886 757.507C371.63 757.464 343.816 758.951 341.528 756.256C339.233 753.553 340.472 739.533 340.59 735.741Z"/>
	<path fill="#04A1FA" d="M354.731 752.283C360.027 751.988 370.122 750.689 374.561 753.559L374.562 754.206C372.561 754.937 369.965 754.713 367.839 754.766C362.499 754.928 352.56 756.222 347.919 753.689L347.878 752.949C349.879 752.114 352.572 752.346 354.731 752.283Z"/>
	<path fill="#04A1FA" d="M347.153 744.177C352.189 743.958 370.622 742.443 374.251 744.83C374.894 745.252 374.724 745.773 374.802 746.468C369.25 746.604 352.261 747.917 348.11 745.946C347.311 745.567 347.389 744.959 347.153 744.177Z"/>
	<path fill="#094285" d="M704.969 646.327L704.849 707.099C708.287 707.099 711.813 706.939 715.239 707.161C698.207 707.759 681.044 707.571 664.001 707.377C653.613 707.258 643.14 706.72 632.768 707.496C629.424 710.717 627.346 713.675 627.184 718.538C627.081 721.644 627.322 724.828 627.454 727.935L626.724 727.032C618.517 725.448 604.527 726.372 596 727.01L595.987 751.044L457.985 750.986C458.286 743.198 457.994 735.296 457.976 727.495L405.475 727.139C405.291 708.891 405.578 690.645 405.494 672.397C402.549 668.816 400.064 666.784 395.317 666.313C382.015 664.993 366.967 665.994 353.505 665.971C344.606 665.956 330.71 665.022 322.224 666.131C319.757 666.454 317.104 667.218 315.133 668.797C312.407 670.982 311.968 674.714 311.718 677.991C310.43 694.873 312.856 714.186 311.378 730.675C306.386 730.582 299.078 729.565 294.346 730.883C293.064 725.087 294.075 704.412 294.108 697.198C294.183 680.411 293.334 663.218 294.379 646.498L570.344 646.323C615.202 646.198 660.116 645.395 704.969 646.327Z"/>
	<path fill="#FEFEFE" d="M525.805 667.521C530.312 667.369 534.113 667.544 538.238 669.586Q539.066 669.993 539.85 670.481Q540.634 670.969 541.366 671.532Q542.097 672.095 542.769 672.729Q543.441 673.362 544.046 674.059Q544.652 674.755 545.185 675.509Q545.719 676.263 546.174 677.065Q546.63 677.868 547.003 678.713Q547.377 679.557 547.665 680.434C549.298 685.368 549.058 691.067 546.588 695.687C543.678 701.131 539.007 703.399 533.415 705.173C529.527 705.678 525.661 705.357 521.993 703.885Q521.574 703.722 521.164 703.537Q520.754 703.352 520.354 703.146Q519.953 702.941 519.564 702.715Q519.176 702.489 518.799 702.243Q518.422 701.997 518.058 701.732Q517.695 701.468 517.345 701.184Q516.996 700.901 516.661 700.6Q516.327 700.299 516.008 699.982Q515.69 699.664 515.388 699.331Q515.086 698.997 514.802 698.648Q514.518 698.299 514.252 697.937Q513.986 697.574 513.739 697.198Q513.492 696.822 513.265 696.433Q513.038 696.045 512.831 695.645Q512.625 695.246 512.439 694.836Q512.253 694.427 512.088 694.008C510.082 688.949 510.463 683.29 512.749 678.39C515.484 672.528 519.962 669.672 525.805 667.521Z"/>
	<path fill="#848A94" d="M457.976 727.495L552.443 727.313C564.574 727.317 584.643 728.743 596 727.01L595.987 751.044L457.985 750.986C458.286 743.198 457.994 735.296 457.976 727.495Z"/>
	<path fill="#FEFEFE" d="M144 633.5L287.528 633.493L287.497 775.85L287.534 816.557C287.542 824.317 287.876 832.265 287.36 840.003L144.257 840.255C143.666 813.384 143.972 786.55 143.987 759.678L144 633.5Z"/>
	<path fill="#0014AF" d="M210.655 717.752C210.328 709.425 209.14 699.854 214.947 692.996C218.342 688.987 225.859 684.612 231.262 684.421C232.775 684.368 233.633 684.813 234.682 685.843C234.201 689.565 222.11 690.573 218.614 694.591C213.483 700.488 214.43 710.531 214.915 717.743Q231.698 717.898 248.478 717.507L248.447 724.908Q215.871 725.156 183.294 724.991L183.163 717.74L210.655 717.752Z"/>
	<path fill="#04A1FA" d="M248.447 724.908C248.61 741.928 250.527 757.444 237.632 770.663C231.043 777.418 223.041 782.99 214.669 787.288C202.528 779.307 187.245 768.915 184.016 753.725C182.029 744.378 183.511 734.47 183.294 724.991Q215.871 725.156 248.447 724.908Z"/>
	<path fill="#04A1FA" d="M705.207 554.1C706.374 549.691 707.603 545.756 711.146 542.599C718.206 536.306 732.649 537.799 741.537 538.435Q761.289 538.627 781.042 538.459C793.052 539.269 804.76 537.602 816.809 539.055C834.298 537.598 852.515 538.661 870.099 538.652C881.156 538.646 892.488 537.533 903.49 538.64C907.25 539.018 912.457 539.771 915.45 542.188C920.05 545.901 920.448 552.173 920.796 557.597C921.35 566.238 920.704 574.928 920.601 583.58C920.438 597.239 920.546 610.909 920.55 624.569L920.498 794.848L920.405 846.289C920.367 856.972 919.98 867.727 920.604 878.394C919.425 879.068 918.176 878.969 916.863 878.999C900.522 879.373 884.098 879.046 867.746 879.045L774.125 879.064L731.457 879.073C722.534 879.076 712.677 879.941 703.94 878.189C704.935 864.588 704.561 850.826 704.577 837.194Q704.557 806.126 704.867 775.06C712.36 775.034 719.654 775.383 727.141 774.804C730.597 774.075 734.24 775.495 737.252 772.968C738.851 771.625 739.023 768.263 739.255 766.312C740.047 759.671 741.043 712.862 738.47 709.841C736.154 707.121 730.787 707.153 727.471 706.981Q721.356 707.121 715.239 707.161C711.813 706.939 708.287 707.099 704.849 707.099L704.969 646.327L704.989 585.723C704.988 575.229 704.621 564.573 705.207 554.1Z"/>
	<path fill="#FEFEFE" d="M835.461 610.252C843.444 609.827 851.898 609.566 859.867 610.303C862.052 610.505 866.325 611.004 867.547 613.128C869.135 615.889 869.169 621.341 869.269 624.453C869.658 636.576 869.09 648.791 869.056 660.926L869.014 737.005Q868.987 752.182 869.118 767.359C869.259 776.056 870.536 786.022 868.691 794.536C867.926 798.067 866.388 799.568 863.403 801.483C854.12 801.865 844.872 801.567 835.587 801.539L790.375 801.509C781.352 801.455 771.811 801.963 762.852 801.088C761.522 800.958 757.737 800.596 756.979 799.346C756.207 798.073 756.41 795.524 756.387 794.026C755.745 752.424 756.414 710.779 756.441 669.172L756.407 639.395C756.349 632.063 755.45 623.703 756.967 616.526C757.597 613.546 759.085 612.154 761.546 610.51C786.186 610.077 810.824 610.88 835.461 610.252Z"/>
	<path fill="#0014AF" d="M764.467 620.497L861.455 620.505C862.032 656.395 861.493 692.375 861.498 728.273L861.527 768.037C861.57 776.585 861.917 785.143 861.42 793.682C848.28 794.678 834.643 794.001 821.453 794C802.411 793.998 783.254 794.403 764.226 793.735C763.904 787.626 764.3 781.42 764.329 775.296L764.373 738.476L764.467 620.497Z"/>
	<path fill="#FEFEFE" d="M769.741 752.863C779.611 749.904 804.248 752.249 815.529 752.335C826.067 752.416 836.674 751.916 847.229 751.864C850.227 752.047 853.411 751.912 855.909 753.806C856.531 755.053 856.523 755.129 856.297 756.509C855.039 757.589 854.839 757.596 853.19 757.736C842.037 758.686 827.332 757.784 815.859 757.785C802.088 757.786 786.453 758.712 772.986 757.702C772.205 757.644 771.476 757.524 770.712 757.362C769.715 756.095 769.845 754.409 769.741 752.863Z"/>
	<path fill="#FEFEFE" d="M769.947 768.497L827.345 768.486C835.008 768.473 842.965 767.756 850.581 768.173C852.551 768.281 854.148 768.743 855.927 769.559C856.451 770.17 857.158 770.777 857.182 771.652C857.207 772.546 855.906 773.837 855.189 774.292C854.693 774.607 854.518 774.608 854.012 774.715C842.871 773.439 825.583 774.326 813.961 774.419C799.439 774.535 784.895 773.95 770.39 774.721C770.401 772.6 770.238 770.598 769.947 768.497Z"/>
	<path fill="#FEFEFE" d="M769.214 747.131C770.426 745.682 770.882 745.653 772.735 745.463C790.054 743.691 808.212 744.665 825.603 744.827C834.798 744.913 846.563 744.048 855.428 745.907C856.245 746.812 856.392 747.433 856.633 748.615C856.351 749.268 856.346 749.717 855.652 750.043C853.988 750.825 851.36 750.556 849.515 750.592L847.293 751.368L847.229 751.864C836.674 751.916 826.067 752.416 815.529 752.335C804.248 752.249 779.611 749.904 769.741 752.863C769.468 750.96 769.35 749.047 769.214 747.131Z"/>
	<path fill="#0669DB" d="M769.741 752.863C769.468 750.96 769.35 749.047 769.214 747.131C769.559 748.371 769.559 749.232 770.558 750.095L849.515 750.592L847.293 751.368L847.229 751.864C836.674 751.916 826.067 752.416 815.529 752.335C804.248 752.249 779.611 749.904 769.741 752.863Z"/>
	<path fill="#FEFEFE" d="M769.851 776.647C778.465 776.17 787.126 776.565 795.75 776.6C815.116 776.679 834.602 776.981 853.955 776.38C855.392 777.167 856.129 777.85 856.648 779.452C857.092 780.824 857.024 781.445 856.508 782.764C851.292 786.095 780.035 784.728 770.552 783.592C770.257 781.277 769.945 778.982 769.851 776.647Z"/>
	<path fill="#FEFEFE" d="M770.045 625.679Q813.286 625.036 856.529 625.494L856.506 736.005Q813.255 736.129 770.005 735.746L770.045 625.679Z"/>
	<path fill="#60C5FC" d="M811.465 643.011L843.514 643.011L843.499 673.493Q827.475 673.519 811.453 673.218L811.465 643.011Z"/>
	<path fill="#0014AF" d="M705.207 554.1C706.374 549.691 707.603 545.756 711.146 542.599C718.206 536.306 732.649 537.799 741.537 538.435Q761.289 538.627 781.042 538.459C793.052 539.269 804.76 537.602 816.809 539.055C834.298 537.598 852.515 538.661 870.099 538.652C881.156 538.646 892.488 537.533 903.49 538.64C907.25 539.018 912.457 539.771 915.45 542.188C920.05 545.901 920.448 552.173 920.796 557.597C921.35 566.238 920.704 574.928 920.601 583.58C920.438 597.239 920.546 610.909 920.55 624.569L920.498 794.848L920.405 846.289C920.367 856.972 919.98 867.727 920.604 878.394C919.425 879.068 918.176 878.969 916.863 878.999C900.522 879.373 884.098 879.046 867.746 879.045L774.125 879.064L731.457 879.073C722.534 879.076 712.677 879.941 703.94 878.189C704.935 864.588 704.561 850.826 704.577 837.194Q704.557 806.126 704.867 775.06C712.36 775.034 719.654 775.383 727.141 774.804C729.122 779.074 726.235 814.904 728.214 824.864C730.267 825.646 732.098 826.212 734.307 826.348C746.413 827.093 758.608 826.825 770.732 826.948L843.896 827.249L870.51 827.326C878.99 827.419 888.615 828.489 896.857 826.404C898.654 815.006 897.491 795.562 897.462 783.292L897.271 698.449Q897.08 663.517 897.311 628.587C897.4 616.247 898.4 603.425 897.473 591.139C897.182 587.289 896.047 586.003 893.133 583.504C858.612 583.075 824.114 583.537 789.595 583.489C777.916 583.473 738.076 581.884 729.418 584.412C727.71 586.403 727.766 590.455 727.601 593.001C726.733 606.366 727.451 619.84 727.471 633.227L727.471 706.981Q721.356 707.121 715.239 707.161C711.813 706.939 708.287 707.099 704.849 707.099L704.969 646.327L704.989 585.723C704.988 575.229 704.621 564.573 705.207 554.1Z"/>
	<path fill="#FEFEFE" d="M778.494 553.933C780.281 553.917 782.436 553.969 783.908 555.157C784.872 555.935 785.463 556.761 785.456 558.045C785.446 560.158 783.941 561.468 782.576 562.855C781.217 562.883 779.265 562.626 778.133 561.822C777.103 561.09 776.398 560.227 776.262 558.928C776.041 556.806 777.235 555.45 778.494 553.933Z"/>
	<path fill="#FEFEFE" d="M809.684 554.258C818.508 553.923 828.239 553.239 836.986 554.418C839.206 554.718 841.256 555.227 842.684 557.062C842.895 558.426 842.821 558.602 842.27 559.878C838.967 562.767 832.499 561.883 828.375 561.926C821.151 562.16 804.882 562.774 798.528 561.289C797.051 560.944 796.688 560.567 795.862 559.334C795.685 557.761 795.784 557.162 796.447 555.726C799.329 553.318 805.946 554.246 809.684 554.258Z"/>
	<path fill="#FEFEFE" d="M809.49 842.011C811.273 842.003 812.892 842.179 814.6 842.731C818.062 843.848 820.835 845.794 822.479 849.111Q822.784 849.739 823.023 850.395Q823.261 851.051 823.431 851.728Q823.601 852.405 823.7 853.096Q823.799 853.787 823.826 854.484Q823.853 855.182 823.809 855.878Q823.764 856.575 823.648 857.263Q823.532 857.951 823.345 858.624Q823.159 859.296 822.904 859.946C820.935 864.964 817.033 867.376 812.341 869.413C809.933 869.22 806.685 868.856 804.546 867.725C801.206 865.958 798.782 863.19 797.731 859.539C796.754 856.145 797.044 852.372 798.798 849.276C801.188 845.061 805.087 843.367 809.49 842.011Z"/>
</svg>
